RedHatMonoVF-Bold.ufo
<glyph name="numbersign" format="2">
  <advance width="600"/>
  <unicode hex="0023"/>
  <outline>
    <contour>
      <point x="-1" y="0" type="line"/>
      <point x="132" y="0" type="line"/>
      <point x="195" y="184" type="line"/>
      <point x="291" y="184" type="line"/>
      <point x="228" y="0" type="line"/>
      <point x="360" y="0" type="line"/>
      <point x="423" y="184" type="line"/>
      <point x="564" y="184" type="line"/>
      <point x="564" y="293" type="line"/>
      <point x="460" y="293" type="line"/>
      <point x="500" y="407" type="line"/>
      <point x="612" y="407" type="line"/>
      <point x="612" y="516" type="line"/>
      <point x="537" y="516" type="line"/>
      <point x="600" y="700" type="line"/>
      <point x="468" y="700" type="line"/>
      <point x="405" y="516" type="line"/>
      <point x="309" y="516" type="line"/>
      <point x="372" y="700" type="line"/>
      <point x="239" y="700" type="line"/>
      <point x="176" y="516" type="line"/>
      <point x="35" y="516" type="line"/>
      <point x="35" y="407" type="line"/>
      <point x="139" y="407" type="line"/>
      <point x="99" y="293" type="line"/>
      <point x="-12" y="293" type="line"/>
      <point x="-12" y="184" type="line"/>
      <point x="62" y="184" type="line"/>
    </contour>
    <contour>
      <point x="232" y="293" type="line"/>
      <point x="272" y="407" type="line"/>
      <point x="368" y="407" type="line"/>
      <point x="328" y="293" type="line"/>
    </contour>
  </outline>
</glyph>
<glyph name="percent" format="2">
  <advance width="600"/>
  <unicode hex="0025"/>
  <outline>
    <contour>
      <point x="142" y="413" type="curve" smooth="yes"/>
      <point x="220" y="413"/>
      <point x="272" y="470"/>
      <point x="272" y="559" type="curve" smooth="yes"/>
      <point x="272" y="648"/>
      <point x="220" y="705"/>
      <point x="142" y="705" type="curve" smooth="yes"/>
      <point x="64" y="705"/>
      <point x="12" y="648"/>
      <point x="12" y="559" type="curve" smooth="yes"/>
      <point x="12" y="470"/>
      <point x="64" y="413"/>
    </contour>
    <contour>
      <point x="142" y="487" type="curve" smooth="yes"/>
      <point x="112" y="487"/>
      <point x="94" y="512"/>
      <point x="94" y="559" type="curve" smooth="yes"/>
      <point x="94" y="606"/>
      <point x="112" y="631"/>
      <point x="142" y="631" type="curve" smooth="yes"/>
      <point x="172" y="631"/>
      <point x="190" y="606"/>
      <point x="190" y="559" type="curve" smooth="yes"/>
      <point x="190" y="512"/>
      <point x="172" y="487"/>
    </contour>
    <contour>
      <point x="458" y="-5" type="curve" smooth="yes"/>
      <point x="536" y="-5"/>
      <point x="588" y="52"/>
      <point x="588" y="141" type="curve" smooth="yes"/>
      <point x="588" y="230"/>
      <point x="536" y="287"/>
      <point x="458" y="287" type="curve" smooth="yes"/>
      <point x="380" y="287"/>
      <point x="328" y="230"/>
      <point x="328" y="141" type="curve" smooth="yes"/>
      <point x="328" y="52"/>
      <point x="380" y="-5"/>
    </contour>
    <contour>
      <point x="458" y="69" type="curve" smooth="yes"/>
      <point x="428" y="69"/>
      <point x="410" y="94"/>
      <point x="410" y="141" type="curve" smooth="yes"/>
      <point x="410" y="188"/>
      <point x="428" y="213"/>
      <point x="458" y="213" type="curve" smooth="yes"/>
      <point x="488" y="213"/>
      <point x="506" y="188"/>
      <point x="506" y="141" type="curve" smooth="yes"/>
      <point x="506" y="94"/>
      <point x="488" y="69"/>
    </contour>
    <component base="fraction" xOffset="18"/>
  </outline>
</glyph>
<glyph name="quotesingle" format="2">
  <advance width="600"/>
  <unicode hex="0027"/>
  <outline>
    <contour>
      <point x="244" y="440" type="line"/>
      <point x="356" y="440" type="line"/>
      <point x="374" y="750" type="line"/>
      <point x="226" y="750" type="line"/>
    </contour>
  </outline>
</glyph>
<glyph name="parenleft" format="2">
  <advance width="600"/>
  <unicode hex="0028"/>
  <outline>
    <contour>
      <point x="438" y="-225" type="curve"/>
      <point x="505" y="-120" type="line"/>
      <point x="347" y="-35"/>
      <point x="273" y="83"/>
      <point x="273" y="243" type="curve" smooth="yes"/>
      <point x="273" y="403"/>
      <point x="347" y="521"/>
      <point x="505" y="606" type="curve"/>
      <point x="438" y="711" type="line"/>
      <point x="244" y="619"/>
      <point x="131" y="454"/>
      <point x="131" y="243" type="curve" smooth="yes"/>
      <point x="131" y="32"/>
      <point x="244" y="-133"/>
    </contour>
  </outline>
</glyph>
<glyph name="period" format="2">
  <advance width="600"/>
  <unicode hex="002E"/>
  <outline>
    <contour>
      <point x="300" y="-10" type="curve" smooth="yes"/>
      <point x="360" y="-10"/>
      <point x="407" y="37"/>
      <point x="407" y="96" type="curve" smooth="yes"/>
      <point x="407" y="155"/>
      <point x="360" y="202"/>
      <point x="300" y="202" type="curve" smooth="yes"/>
      <point x="240" y="202"/>
      <point x="193" y="155"/>
      <point x="193" y="96" type="curve" smooth="yes"/>
      <point x="193" y="37"/>
      <point x="240" y="-10"/>
    </contour>
  </outline>
</glyph>
<glyph name="slash" format="2">
  <advance width="600"/>
  <unicode hex="002F"/>
  <outline>
    <contour>
      <point x="-16" y="-209" type="line"/>
      <point x="139" y="-209" type="line"/>
      <point x="540" y="700" type="line"/>
      <point x="386" y="700" type="line"/>
    </contour>
  </outline>
</glyph>
<glyph name="two" format="2">
  <advance width="600"/>
  <unicode hex="0032"/>
  <outline>
    <contour>
      <point x="49" y="0" type="line"/>
      <point x="552" y="0" type="line"/>
      <point x="552" y="131" type="line"/>
      <point x="249" y="130" type="line"/>
      <point x="451" y="325" type="line" smooth="yes"/>
      <point x="514" y="386"/>
      <point x="542" y="442"/>
      <point x="542" y="508" type="curve" smooth="yes"/>
      <point x="542" y="630"/>
      <point x="443" y="711"/>
      <point x="294" y="711" type="curve" smooth="yes"/>
      <point x="197" y="711"/>
      <point x="106" y="672"/>
      <point x="26" y="596" type="curve"/>
      <point x="112" y="491" type="line"/>
      <point x="176" y="553"/>
      <point x="226" y="577"/>
      <point x="289" y="577" type="curve" smooth="yes"/>
      <point x="348" y="577"/>
      <point x="392" y="543"/>
      <point x="392" y="498" type="curve" smooth="yes"/>
      <point x="392" y="465"/>
      <point x="378" y="435"/>
      <point x="345" y="403" type="curve" smooth="yes"/>
      <point x="49" y="110" type="line"/>
    </contour>
  </outline>
</glyph>
<glyph name="five" format="2">
  <advance width="600"/>
  <unicode hex="0035"/>
  <outline>
    <contour>
      <point x="279" y="-11" type="curve" smooth="yes"/>
      <point x="451" y="-11"/>
      <point x="567" y="86"/>
      <point x="567" y="231" type="curve" smooth="yes"/>
      <point x="567" y="359"/>
      <point x="473" y="444"/>
      <point x="331" y="444" type="curve" smooth="yes"/>
      <point x="291" y="444"/>
      <point x="249" y="439"/>
      <point x="201" y="417" type="curve"/>
      <point x="208" y="569" type="line"/>
      <point x="530" y="569" type="line"/>
      <point x="530" y="700" type="line"/>
      <point x="72" y="700" type="line"/>
      <point x="55" y="324" type="line"/>
      <point x="166" y="291" type="line"/>
      <point x="206" y="313"/>
      <point x="242" y="325"/>
      <point x="280" y="325" type="curve" smooth="yes"/>
      <point x="354" y="325"/>
      <point x="409" y="282"/>
      <point x="409" y="223" type="curve" smooth="yes"/>
      <point x="409" y="162"/>
      <point x="360" y="122"/>
      <point x="287" y="122" type="curve" smooth="yes"/>
      <point x="225" y="122"/>
      <point x="174" y="142"/>
      <point x="115" y="190" type="curve"/>
      <point x="23" y="83" type="line"/>
      <point x="95" y="21"/>
      <point x="182" y="-11"/>
    </contour>
  </outline>
</glyph>
<glyph name="question" format="2">
  <advance width="600"/>
  <unicode hex="003F"/>
  <outline>
    <contour>
      <point x="214" y="245" type="curve"/>
      <point x="343" y="245" type="line"/>
      <point x="334" y="344"/>
      <point x="540" y="352"/>
      <point x="540" y="520" type="curve" smooth="yes"/>
      <point x="540" y="628"/>
      <point x="443" y="711"/>
      <point x="304" y="711" type="curve" smooth="yes"/>
      <point x="184" y="711"/>
      <point x="83" y="645"/>
      <point x="47" y="541" type="curve"/>
      <point x="172" y="492" type="line"/>
      <point x="191" y="544"/>
      <point x="239" y="578"/>
      <point x="297" y="578" type="curve" smooth="yes"/>
      <point x="351" y="578"/>
      <point x="389" y="552"/>
      <point x="389" y="515" type="curve" smooth="yes"/>
      <point x="389" y="424"/>
      <point x="195" y="423"/>
    </contour>
    <contour>
      <point x="281" y="-10" type="curve" smooth="yes"/>
      <point x="338" y="-10"/>
      <point x="382" y="34"/>
      <point x="382" y="90" type="curve" smooth="yes"/>
      <point x="382" y="146"/>
      <point x="338" y="190"/>
      <point x="281" y="190" type="curve" smooth="yes"/>
      <point x="224" y="190"/>
      <point x="180" y="146"/>
      <point x="180" y="90" type="curve" smooth="yes"/>
      <point x="180" y="34"/>
      <point x="224" y="-10"/>
    </contour>
  </outline>
</glyph>
<glyph name="C" format="2">
  <advance width="600"/>
  <unicode hex="0043"/>
  <anchor x="311" y="700" name="top"/>
  <anchor x="315" y="0" name="bottom"/>
  <outline>
    <contour>
      <point x="310" y="-11" type="curve" smooth="yes"/>
      <point x="436" y="-11"/>
      <point x="541" y="76"/>
      <point x="574" y="229" type="curve"/>
      <point x="423" y="268" type="line"/>
      <point x="411" y="184"/>
      <point x="366" y="142"/>
      <point x="315" y="142" type="curve" smooth="yes"/>
      <point x="251" y="142"/>
      <point x="202" y="201"/>
      <point x="202" y="350" type="curve" smooth="yes"/>
      <point x="202" y="499"/>
      <point x="251" y="558"/>
      <point x="315" y="558" type="curve" smooth="yes"/>
      <point x="366" y="558"/>
      <point x="411" y="516"/>
      <point x="423" y="432" type="curve"/>
      <point x="574" y="471" type="line"/>
      <point x="541" y="624"/>
      <point x="436" y="711"/>
      <point x="310" y="711" type="curve" smooth="yes"/>
      <point x="152" y="711"/>
      <point x="29" y="582"/>
      <point x="29" y="350" type="curve" smooth="yes"/>
      <point x="29" y="118"/>
      <point x="152" y="-11"/>
    </contour>
  </outline>
</glyph>
<glyph name="D" format="2">
  <advance width="600"/>
  <unicode hex="0044"/>
  <anchor x="313" y="700" name="top"/>
  <outline>
    <contour>
      <point x="224" y="144" type="line"/>
      <point x="224" y="556" type="line"/>
      <point x="261" y="556" type="line" smooth="yes"/>
      <point x="340" y="556"/>
      <point x="403" y="488"/>
      <point x="403" y="350" type="curve" smooth="yes"/>
      <point x="403" y="212"/>
      <point x="340" y="144"/>
      <point x="261" y="144" type="curve" smooth="yes"/>
    </contour>
    <contour>
      <point x="52" y="0" type="line"/>
      <point x="274" y="0" type="line" smooth="yes"/>
      <point x="443" y="0"/>
      <point x="576" y="130"/>
      <point x="576" y="350" type="curve" smooth="yes"/>
      <point x="576" y="570"/>
      <point x="443" y="700"/>
      <point x="274" y="700" type="curve" smooth="yes"/>
      <point x="52" y="700" type="line"/>
    </contour>
  </outline>
</glyph>
<glyph name="F" format="2">
  <advance width="600"/>
  <unicode hex="0046"/>
  <outline>
    <contour>
      <point x="79" y="0" type="line"/>
      <point x="251" y="0" type="line"/>
      <point x="251" y="278" type="line"/>
      <point x="453" y="278" type="line"/>
      <point x="453" y="418" type="line"/>
      <point x="251" y="418" type="line"/>
      <point x="251" y="556" type="line"/>
      <point x="563" y="556" type="line"/>
      <point x="563" y="700" type="line"/>
      <point x="79" y="700" type="line"/>
    </contour>
  </outline>
</glyph>
<glyph name="J" format="2">
  <advance width="600"/>
  <unicode hex="004A"/>
  <anchor x="473" y="700" name="top"/>
  <outline>
    <contour>
      <point x="302" y="-11" type="curve" smooth="yes"/>
      <point x="460" y="-11"/>
      <point x="559" y="92"/>
      <point x="559" y="247" type="curve" smooth="yes"/>
      <point x="559" y="700" type="line"/>
      <point x="387" y="700" type="line"/>
      <point x="387" y="247" type="line" smooth="yes"/>
      <point x="387" y="184"/>
      <point x="351" y="143"/>
      <point x="297" y="143" type="curve" smooth="yes"/>
      <point x="238" y="143"/>
      <point x="200" y="181"/>
      <point x="177" y="260" type="curve"/>
      <point x="19" y="201" type="line"/>
      <point x="59" y="63"/>
      <point x="160" y="-11"/>
    </contour>
  </outline>
</glyph>
<glyph name="R" format="2">
  <advance width="600"/>
  <unicode hex="0052"/>
  <anchor x="300" y="700" name="top"/>
  <anchor x="308" y="0" name="bottom"/>
  <outline>
    <contour>
      <point x="57" y="0" type="line"/>
      <point x="229" y="0" type="line"/>
      <point x="229" y="256" type="line"/>
      <point x="288" y="256" type="line"/>
      <point x="414" y="0" type="line"/>
      <point x="595" y="0" type="line"/>
      <point x="447" y="283" type="line"/>
      <point x="522" y="319"/>
      <point x="569" y="389"/>
      <point x="569" y="478" type="curve" smooth="yes"/>
      <point x="569" y="609"/>
      <point x="466" y="700"/>
      <point x="322" y="700" type="curve" smooth="yes"/>
      <point x="57" y="700" type="line"/>
    </contour>
    <contour>
      <point x="229" y="392" type="line"/>
      <point x="229" y="558" type="line"/>
      <point x="306" y="558" type="line" smooth="yes"/>
      <point x="359" y="558"/>
      <point x="395" y="525"/>
      <point x="395" y="475" type="curve" smooth="yes"/>
      <point x="395" y="425"/>
      <point x="359" y="392"/>
      <point x="306" y="392" type="curve" smooth="yes"/>
    </contour>
  </outline>
</glyph>
<glyph name="S" format="2">
  <advance width="600"/>
  <unicode hex="0053"/>
  <anchor x="287" y="700" name="top"/>
  <anchor x="302" y="0" name="bottom"/>
  <outline>
    <contour>
      <point x="300" y="-11" type="curve" smooth="yes"/>
      <point x="470" y="-11"/>
      <point x="578" y="81"/>
      <point x="578" y="216" type="curve" smooth="yes"/>
      <point x="578" y="484"/>
      <point x="188" y="379"/>
      <point x="188" y="504" type="curve" smooth="yes"/>
      <point x="188" y="543"/>
      <point x="224" y="571"/>
      <point x="287" y="571" type="curve" smooth="yes"/>
      <point x="355" y="571"/>
      <point x="417" y="547"/>
      <point x="480" y="499" type="curve"/>
      <point x="567" y="624" type="line"/>
      <point x="499" y="678"/>
      <point x="398" y="711"/>
      <point x="296" y="711" type="curve" smooth="yes"/>
      <point x="126" y="711"/>
      <point x="26" y="626"/>
      <point x="26" y="489" type="curve" smooth="yes"/>
      <point x="26" y="224"/>
      <point x="410" y="338"/>
      <point x="410" y="200" type="curve" smooth="yes"/>
      <point x="410" y="158"/>
      <point x="370" y="129"/>
      <point x="304" y="129" type="curve" smooth="yes"/>
      <point x="242" y="129"/>
      <point x="184" y="153"/>
      <point x="95" y="212" type="curve"/>
      <point x="11" y="83" type="line"/>
      <point x="101" y="21"/>
      <point x="193" y="-11"/>
    </contour>
  </outline>
</glyph>
<glyph name="Y" format="2">
  <advance width="600"/>
  <unicode hex="0059"/>
  <anchor x="300" y="700" name="top"/>
  <outline>
    <contour>
      <point x="214" y="0" type="line"/>
      <point x="386" y="0" type="line"/>
      <point x="386" y="287" type="line"/>
      <point x="605" y="700" type="line"/>
      <point x="433" y="700" type="line"/>
      <point x="305" y="448" type="line"/>
      <point x="178" y="700" type="line"/>
      <point x="-5" y="700" type="line"/>
      <point x="214" y="287" type="line"/>
    </contour>
  </outline>
</glyph>
<glyph name="underscore" format="2">
  <advance width="600"/>
  <unicode hex="005F"/>
  <outline>
    <contour>
      <point x="62" y="-191" type="line"/>
      <point x="538" y="-191" type="line"/>
      <point x="538" y="-80" type="line"/>
      <point x="62" y="-80" type="line"/>
    </contour>
  </outline>
</glyph>
<glyph name="grave" format="2">
  <advance width="600"/>
  <unicode hex="0060"/>
  <outline>
    <contour>
      <point x="248" y="601" type="line"/>
      <point x="396" y="601" type="line"/>
      <point x="258" y="747" type="line"/>
      <point x="56" y="747" type="line"/>
    </contour>
  </outline>
</glyph>
<glyph name="c" format="2">
  <advance width="600"/>
  <unicode hex="0063"/>
  <anchor x="321" y="516" name="top"/>
  <anchor x="317" y="0" name="bottom"/>
  <outline>
    <contour>
      <point x="319" y="-10" type="curve" smooth="yes"/>
      <point x="427" y="-10"/>
      <point x="518" y="39"/>
      <point x="566" y="114" type="curve"/>
      <point x="444" y="203" type="line"/>
      <point x="421" y="157"/>
      <point x="375" y="128"/>
      <point x="320" y="128" type="curve" smooth="yes"/>
      <point x="250" y="128"/>
      <point x="198" y="183"/>
      <point x="198" y="257" type="curve" smooth="yes"/>
      <point x="198" y="331"/>
      <point x="250" y="386"/>
      <point x="320" y="386" type="curve" smooth="yes"/>
      <point x="375" y="386"/>
      <point x="421" y="357"/>
      <point x="444" y="311" type="curve"/>
      <point x="566" y="400" type="line"/>
      <point x="518" y="475"/>
      <point x="427" y="524"/>
      <point x="319" y="524" type="curve" smooth="yes"/>
      <point x="159" y="524"/>
      <point x="37" y="408"/>
      <point x="37" y="257" type="curve" smooth="yes"/>
      <point x="37" y="106"/>
      <point x="159" y="-10"/>
    </contour>
  </outline>
</glyph>
<glyph name="j" format="2">
  <advance width="600"/>
  <unicode hex="006A"/>
  <outline>
    <contour>
      <point x="391" y="594" type="curve" smooth="yes"/>
      <point x="447" y="594"/>
      <point x="493" y="640"/>
      <point x="493" y="696" type="curve" smooth="yes"/>
      <point x="493" y="752"/>
      <point x="447" y="798"/>
      <point x="391" y="798" type="curve" smooth="yes"/>
      <point x="335" y="798"/>
      <point x="289" y="752"/>
      <point x="289" y="696" type="curve" smooth="yes"/>
      <point x="289" y="640"/>
      <point x="335" y="594"/>
    </contour>
    <contour>
      <point x="216" y="-219" type="curve" smooth="yes"/>
      <point x="387" y="-219"/>
      <point x="472" y="-146"/>
      <point x="472" y="6" type="curve" smooth="yes"/>
      <point x="472" y="516" type="line"/>
      <point x="75" y="516" type="line"/>
      <point x="75" y="391" type="line"/>
      <point x="310" y="391" type="line"/>
      <point x="310" y="27" type="line" smooth="yes"/>
      <point x="310" y="-54"/>
      <point x="285" y="-81"/>
      <point x="206" y="-81" type="curve" smooth="yes"/>
      <point x="174" y="-81"/>
      <point x="139" y="-77"/>
      <point x="75" y="-60" type="curve"/>
      <point x="75" y="-199" type="line"/>
      <point x="118" y="-211"/>
      <point x="175" y="-219"/>
    </contour>
  </outline>
</glyph>
<glyph name="m" format="2">
  <advance width="600"/>
  <unicode hex="006D"/>
  <outline>
    <contour>
      <point x="32" y="0" type="line"/>
      <point x="164" y="0" type="line"/>
      <point x="164" y="398" type="line"/>
      <point x="173" y="405"/>
      <point x="182" y="407"/>
      <point x="192" y="407" type="curve"/>
      <point x="218" y="407"/>
      <point x="234" y="384"/>
      <point x="234" y="350" type="curve"/>
      <point x="234" y="0" type="line"/>
      <point x="366" y="0" type="line"/>
      <point x="366" y="383" type="line" smooth="yes"/>
      <point x="366" y="388"/>
      <point x="366" y="393"/>
      <point x="366" y="397" type="curve"/>
      <point x="374" y="404"/>
      <point x="383" y="407"/>
      <point x="394" y="407" type="curve"/>
      <point x="421" y="407"/>
      <point x="436" y="384"/>
      <point x="436" y="350" type="curve"/>
      <point x="436" y="0" type="line"/>
      <point x="568" y="0" type="line"/>
      <point x="568" y="393" type="line" smooth="yes"/>
      <point x="568" y="470"/>
      <point x="521" y="524"/>
      <point x="454" y="524" type="curve"/>
      <point x="410" y="524"/>
      <point x="375" y="503"/>
      <point x="348" y="463" type="curve"/>
      <point x="329" y="501"/>
      <point x="294" y="524"/>
      <point x="251" y="524" type="curve"/>
      <point x="216" y="524"/>
      <point x="188" y="506"/>
      <point x="164" y="473" type="curve"/>
      <point x="164" y="516" type="line"/>
      <point x="32" y="516" type="line"/>
    </contour>
  </outline>
</glyph>
<glyph name="n" format="2">
  <advance width="600"/>
  <unicode hex="006E"/>
  <anchor x="300" y="516" name="top"/>
  <anchor x="300" y="0" name="bottom"/>
  <outline>
    <contour>
      <point x="59" y="0" type="line"/>
      <point x="221" y="0" type="line"/>
      <point x="221" y="366" type="line"/>
      <point x="242" y="387"/>
      <point x="267" y="397"/>
      <point x="297" y="397" type="curve" smooth="yes"/>
      <point x="349" y="397"/>
      <point x="383" y="359"/>
      <point x="383" y="301" type="curve" smooth="yes"/>
      <point x="383" y="0" type="line"/>
      <point x="545" y="0" type="line"/>
      <point x="545" y="348" type="line" smooth="yes"/>
      <point x="545" y="451"/>
      <point x="474" y="524"/>
      <point x="374" y="524" type="curve" smooth="yes"/>
      <point x="312" y="524"/>
      <point x="260" y="497"/>
      <point x="221" y="446" type="curve"/>
      <point x="221" y="516" type="line"/>
      <point x="59" y="516" type="line"/>
    </contour>
  </outline>
</glyph>
<glyph name="o" format="2">
  <advance width="600"/>
  <unicode hex="006F"/>
  <anchor x="300" y="516" name="top"/>
  <outline>
    <contour>
      <point x="300" y="-10" type="curve" smooth="yes"/>
      <point x="453" y="-10"/>
      <point x="569" y="106"/>
      <point x="569" y="257" type="curve" smooth="yes"/>
      <point x="569" y="408"/>
      <point x="453" y="524"/>
      <point x="300" y="524" type="curve" smooth="yes"/>
      <point x="147" y="524"/>
      <point x="31" y="408"/>
      <point x="31" y="257" type="curve" smooth="yes"/>
      <point x="31" y="106"/>
      <point x="147" y="-10"/>
    </contour>
    <contour>
      <point x="300" y="126" type="curve" smooth="yes"/>
      <point x="235" y="126"/>
      <point x="189" y="181"/>
      <point x="189" y="257" type="curve" smooth="yes"/>
      <point x="189" y="333"/>
      <point x="235" y="388"/>
      <point x="300" y="388" type="curve" smooth="yes"/>
      <point x="365" y="388"/>
      <point x="411" y="333"/>
      <point x="411" y="257" type="curve" smooth="yes"/>
      <point x="411" y="181"/>
      <point x="365" y="126"/>
    </contour>
  </outline>
</glyph>
<glyph name="p" format="2">
  <advance width="600"/>
  <unicode hex="0070"/>
  <outline>
    <contour>
      <point x="59" y="-209" type="line"/>
      <point x="221" y="-209" type="line"/>
      <point x="221" y="43" type="line"/>
      <point x="253" y="11"/>
      <point x="294" y="-8"/>
      <point x="340" y="-8" type="curve"/>
      <point x="466" y="-8"/>
      <point x="569" y="107"/>
      <point x="569" y="258" type="curve" smooth="yes"/>
      <point x="569" y="409"/>
      <point x="466" y="524"/>
      <point x="340" y="524" type="curve"/>
      <point x="291" y="524"/>
      <point x="248" y="503"/>
      <point x="215" y="466" type="curve"/>
      <point x="215" y="516" type="line"/>
      <point x="59" y="516" type="line"/>
    </contour>
    <contour>
      <point x="302" y="120" type="curve"/>
      <point x="271" y="120"/>
      <point x="243" y="132"/>
      <point x="221" y="152" type="curve"/>
      <point x="221" y="364" type="line"/>
      <point x="243" y="384"/>
      <point x="271" y="396"/>
      <point x="302" y="396" type="curve"/>
      <point x="369" y="396"/>
      <point x="410" y="341"/>
      <point x="410" y="258" type="curve" smooth="yes"/>
      <point x="410" y="175"/>
      <point x="369" y="120"/>
    </contour>
  </outline>
</glyph>
<glyph name="s" format="2">
  <advance width="600"/>
  <unicode hex="0073"/>
  <anchor x="300" y="516" name="top"/>
  <anchor x="300" y="0" name="bottom"/>
  <outline>
    <contour>
      <point x="297" y="-10" type="curve" smooth="yes"/>
      <point x="435" y="-10"/>
      <point x="542" y="58"/>
      <point x="542" y="164" type="curve" smooth="yes"/>
      <point x="542" y="367"/>
      <point x="215" y="299"/>
      <point x="215" y="372" type="curve" smooth="yes"/>
      <point x="215" y="395"/>
      <point x="243" y="408"/>
      <point x="296" y="408" type="curve" smooth="yes"/>
      <point x="348" y="408"/>
      <point x="403" y="393"/>
      <point x="455" y="358" type="curve"/>
      <point x="533" y="457" type="line"/>
      <point x="465" y="503"/>
      <point x="380" y="526"/>
      <point x="300" y="526" type="curve" smooth="yes"/>
      <point x="163" y="526"/>
      <point x="73" y="467"/>
      <point x="73" y="358" type="curve" smooth="yes"/>
      <point x="73" y="161"/>
      <point x="394" y="226"/>
      <point x="394" y="151" type="curve" smooth="yes"/>
      <point x="394" y="124"/>
      <point x="360" y="109"/>
      <point x="298" y="109" type="curve" smooth="yes"/>
      <point x="244" y="109"/>
      <point x="198" y="123"/>
      <point x="122" y="167" type="curve"/>
      <point x="47" y="63" type="line"/>
      <point x="108" y="17"/>
      <point x="197" y="-10"/>
    </contour>
  </outline>
</glyph>
<glyph name="t" format="2">
  <advance width="600"/>
  <unicode hex="0074"/>
  <anchor x="355" y="0" name="bottom"/>
  <outline>
    <contour>
      <point x="398" y="-10" type="curve" smooth="yes"/>
      <point x="442" y="-10"/>
      <point x="500" y="0"/>
      <point x="540" y="11" type="curve"/>
      <point x="540" y="142" type="line"/>
      <point x="489" y="128"/>
      <point x="459" y="126"/>
      <point x="430" y="126" type="curve" smooth="yes"/>
      <point x="365" y="126"/>
      <point x="342" y="149"/>
      <point x="342" y="214" type="curve" smooth="yes"/>
      <point x="342" y="391" type="line"/>
      <point x="537" y="391" type="line"/>
      <point x="537" y="516" type="line"/>
      <point x="342" y="516" type="line"/>
      <point x="342" y="692" type="line"/>
      <point x="180" y="659" type="line"/>
      <point x="180" y="516" type="line"/>
      <point x="29" y="516" type="line"/>
      <point x="29" y="391" type="line"/>
      <point x="180" y="391" type="line"/>
      <point x="180" y="182" type="line" smooth="yes"/>
      <point x="180" y="55"/>
      <point x="254" y="-10"/>
    </contour>
  </outline>
</glyph>
<glyph name="u" format="2">
  <advance width="600"/>
  <unicode hex="0075"/>
  <anchor x="300" y="516" name="top"/>
  <anchor x="541" y="0" name="bottom"/>
  <outline>
    <contour>
      <point x="226" y="-8" type="curve" smooth="yes"/>
      <point x="288" y="-8"/>
      <point x="340" y="19"/>
      <point x="379" y="70" type="curve"/>
      <point x="379" y="0" type="line"/>
      <point x="541" y="0" type="line"/>
      <point x="541" y="516" type="line"/>
      <point x="379" y="516" type="line"/>
      <point x="379" y="150" type="line"/>
      <point x="358" y="129"/>
      <point x="333" y="119"/>
      <point x="303" y="119" type="curve" smooth="yes"/>
      <point x="251" y="119"/>
      <point x="217" y="157"/>
      <point x="217" y="215" type="curve" smooth="yes"/>
      <point x="217" y="516" type="line"/>
      <point x="55" y="516" type="line"/>
      <point x="55" y="168" type="line" smooth="yes"/>
      <point x="55" y="65"/>
      <point x="126" y="-8"/>
    </contour>
  </outline>
</glyph>
<glyph name="x" format="2">
  <advance width="600"/>
  <unicode hex="0078"/>
  <outline>
    <contour>
      <point x="14" y="0" type="line"/>
      <point x="193" y="0" type="line"/>
      <point x="296" y="148" type="line"/>
      <point x="398" y="0" type="line"/>
      <point x="586" y="0" type="line"/>
      <point x="392" y="258" type="line"/>
      <point x="583" y="516" type="line"/>
      <point x="403" y="516" type="line"/>
      <point x="303" y="372" type="line"/>
      <point x="204" y="516" type="line"/>
      <point x="17" y="516" type="line"/>
      <point x="206" y="261" type="line"/>
    </contour>
  </outline>
</glyph>
<glyph name="y" format="2">
  <advance width="600"/>
  <unicode hex="0079"/>
  <anchor x="307" y="516" name="top"/>
  <outline>
    <contour>
      <point x="130" y="-219" type="curve" smooth="yes"/>
      <point x="249" y="-219"/>
      <point x="308" y="-176"/>
      <point x="356" y="-58" type="curve" smooth="yes"/>
      <point x="588" y="516" type="line"/>
      <point x="415" y="516" type="line"/>
      <point x="296" y="177" type="line"/>
      <point x="189" y="516" type="line"/>
      <point x="12" y="516" type="line"/>
      <point x="204" y="-14" type="line"/>
      <point x="197" y="-32" type="line" smooth="yes"/>
      <point x="184" y="-64"/>
      <point x="156" y="-79"/>
      <point x="111" y="-79" type="curve"/>
      <point x="76" y="-79"/>
      <point x="64" y="-78"/>
      <point x="33" y="-72" type="curve"/>
      <point x="33" y="-208" type="line"/>
      <point x="65" y="-215"/>
      <point x="102" y="-219"/>
    </contour>
  </outline>
</glyph>
<glyph name="braceleft" format="2">
  <advance width="600"/>
  <unicode hex="007B"/>
  <outline>
    <contour>
      <point x="372" y="-223" type="curve" smooth="yes"/>
      <point x="419" y="-223"/>
      <point x="461" y="-217"/>
      <point x="505" y="-200" type="curve"/>
      <point x="476" y="-86" type="line"/>
      <point x="449" y="-96"/>
      <point x="422" y="-102"/>
      <point x="393" y="-102" type="curve" smooth="yes"/>
      <point x="347" y="-101"/>
      <point x="319" y="-79"/>
      <point x="319" y="-46" type="curve" smooth="yes"/>
      <point x="319" y="0"/>
      <point x="384" y="74"/>
      <point x="384" y="129" type="curve" smooth="yes"/>
      <point x="384" y="183"/>
      <point x="340" y="229"/>
      <point x="276" y="243" type="curve"/>
      <point x="340" y="257"/>
      <point x="384" y="303"/>
      <point x="384" y="357" type="curve" smooth="yes"/>
      <point x="384" y="412"/>
      <point x="319" y="486"/>
      <point x="319" y="532" type="curve" smooth="yes"/>
      <point x="319" y="565"/>
      <point x="347" y="587"/>
      <point x="393" y="588" type="curve"/>
      <point x="422" y="588"/>
      <point x="449" y="582"/>
      <point x="476" y="572" type="curve"/>
      <point x="505" y="686" type="line"/>
      <point x="461" y="703"/>
      <point x="419" y="709"/>
      <point x="372" y="709" type="curve"/>
      <point x="265" y="709"/>
      <point x="185" y="644"/>
      <point x="185" y="557" type="curve" smooth="yes"/>
      <point x="185" y="481"/>
      <point x="253" y="419"/>
      <point x="253" y="367" type="curve" smooth="yes"/>
      <point x="253" y="329"/>
      <point x="222" y="302"/>
      <point x="178" y="302" type="curve" smooth="yes"/>
      <point x="102" y="302" type="line"/>
      <point x="102" y="184" type="line"/>
      <point x="178" y="184" type="line" smooth="yes"/>
      <point x="222" y="184"/>
      <point x="253" y="157"/>
      <point x="253" y="119" type="curve" smooth="yes"/>
      <point x="253" y="67"/>
      <point x="185" y="5"/>
      <point x="185" y="-71" type="curve" smooth="yes"/>
      <point x="185" y="-158"/>
      <point x="265" y="-223"/>
    </contour>
  </outline>
</glyph>
<glyph name="bar" format="2">
  <advance width="600"/>
  <unicode hex="007C"/>
  <outline>
    <contour>
      <point x="228" y="-209" type="line"/>
      <point x="372" y="-209" type="line"/>
      <point x="372" y="700" type="line"/>
      <point x="228" y="700" type="line"/>
    </contour>
  </outline>
</glyph>
<glyph name="cent" format="2">
  <advance width="600"/>
  <unicode hex="00A2"/>
  <outline>
    <contour>
      <point x="278" y="-111" type="line"/>
      <point x="346" y="-111" type="line"/>
      <point x="346" y="-9" type="line"/>
      <point x="431" y="-3"/>
      <point x="504" y="34"/>
      <point x="545" y="91" type="curve"/>
      <point x="435" y="190" type="line"/>
      <point x="415" y="159"/>
      <point x="384" y="137"/>
      <point x="346" y="130" type="curve"/>
      <point x="346" y="384" type="line"/>
      <point x="383" y="377"/>
      <point x="415" y="356"/>
      <point x="435" y="325" type="curve"/>
      <point x="545" y="423" type="line"/>
      <point x="504" y="480"/>
      <point x="431" y="517"/>
      <point x="346" y="523" type="curve"/>
      <point x="346" y="625" type="line"/>
      <point x="278" y="625" type="line"/>
      <point x="278" y="521" type="line"/>
      <point x="139" y="503"/>
      <point x="37" y="395"/>
      <point x="37" y="257" type="curve" smooth="yes"/>
      <point x="37" y="119"/>
      <point x="139" y="11"/>
      <point x="278" y="-7" type="curve"/>
    </contour>
    <contour>
      <point x="198" y="257" type="curve" smooth="yes"/>
      <point x="198" y="315"/>
      <point x="230" y="362"/>
      <point x="278" y="379" type="curve"/>
      <point x="278" y="135" type="line"/>
      <point x="230" y="152"/>
      <point x="198" y="199"/>
    </contour>
  </outline>
</glyph>
<glyph name="sterling" format="2">
  <advance width="600"/>
  <unicode hex="00A3"/>
  <outline>
    <contour>
      <point x="58" y="287" type="line"/>
      <point x="160" y="287" type="line"/>
      <point x="170" y="255"/>
      <point x="177" y="225"/>
      <point x="177" y="203" type="curve" smooth="yes"/>
      <point x="177" y="190"/>
      <point x="173" y="176"/>
      <point x="164" y="165" type="curve"/>
      <point x="105" y="154"/>
      <point x="55" y="109"/>
      <point x="18" y="42" type="curve"/>
      <point x="138" y="-28" type="line"/>
      <point x="159" y="12"/>
      <point x="186" y="34"/>
      <point x="217" y="34" type="curve" smooth="yes"/>
      <point x="281" y="34"/>
      <point x="354" y="-25"/>
      <point x="441" y="-25" type="curve" smooth="yes"/>
      <point x="514" y="-25"/>
      <point x="574" y="10"/>
      <point x="617" y="89" type="curve"/>
      <point x="497" y="159" type="line"/>
      <point x="479" y="124"/>
      <point x="455" y="109"/>
      <point x="419" y="109" type="curve" smooth="yes"/>
      <point x="380" y="109"/>
      <point x="337" y="131"/>
      <point x="290" y="148" type="curve"/>
      <point x="307" y="170"/>
      <point x="315" y="197"/>
      <point x="315" y="226" type="curve" smooth="yes"/>
      <point x="315" y="245"/>
      <point x="312" y="266"/>
      <point x="307" y="287" type="curve"/>
      <point x="414" y="287" type="line"/>
      <point x="414" y="375" type="line"/>
      <point x="281" y="375" type="line"/>
      <point x="269" y="414"/>
      <point x="259" y="453"/>
      <point x="259" y="488" type="curve"/>
      <point x="259" y="545"/>
      <point x="292" y="579"/>
      <point x="343" y="579" type="curve" smooth="yes"/>
      <point x="392" y="579"/>
      <point x="423" y="547"/>
      <point x="447" y="483" type="curve"/>
      <point x="585" y="527" type="line"/>
      <point x="546" y="649"/>
      <point x="463" y="711"/>
      <point x="336" y="711" type="curve" smooth="yes"/>
      <point x="202" y="711"/>
      <point x="109" y="623"/>
      <point x="109" y="491" type="curve"/>
      <point x="109" y="457"/>
      <point x="119" y="416"/>
      <point x="132" y="375" type="curve"/>
      <point x="58" y="375" type="line"/>
    </contour>
  </outline>
</glyph>
<glyph name="uni00A6" format="2">
  <advance width="600"/>
  <unicode hex="00A6"/>
  <outline>
    <contour>
      <point x="224" y="288" type="line"/>
      <point x="374" y="288" type="line"/>
      <point x="374" y="700" type="line"/>
      <point x="224" y="700" type="line"/>
    </contour>
    <contour>
      <point x="224" y="-209" type="line"/>
      <point x="374" y="-209" type="line"/>
      <point x="374" y="203" type="line"/>
      <point x="224" y="203" type="line"/>
    </contour>
  </outline>
</glyph>
<glyph name="section" format="2">
  <advance width="600"/>
  <unicode hex="00A7"/>
  <outline>
    <contour>
      <point x="287" y="-54" type="curve" smooth="yes"/>
      <point x="408" y="-54"/>
      <point x="487" y="10"/>
      <point x="487" y="107" type="curve" smooth="yes"/>
      <point x="487" y="139"/>
      <point x="479" y="166"/>
      <point x="462" y="188" type="curve"/>
      <point x="518" y="214"/>
      <point x="550" y="262"/>
      <point x="550" y="324" type="curve" smooth="yes"/>
      <point x="550" y="401"/>
      <point x="512" y="440"/>
      <point x="400" y="479" type="curve" smooth="yes"/>
      <point x="303" y="514" type="line" smooth="yes"/>
      <point x="266" y="527"/>
      <point x="252" y="540"/>
      <point x="252" y="562" type="curve" smooth="yes"/>
      <point x="252" y="591"/>
      <point x="274" y="608"/>
      <point x="312" y="608" type="curve" smooth="yes"/>
      <point x="354" y="608"/>
      <point x="400" y="592"/>
      <point x="454" y="558" type="curve"/>
      <point x="514" y="652" type="line"/>
      <point x="453" y="690"/>
      <point x="383" y="711"/>
      <point x="315" y="711" type="curve" smooth="yes"/>
      <point x="193" y="711"/>
      <point x="113" y="646"/>
      <point x="113" y="548" type="curve" smooth="yes"/>
      <point x="113" y="515"/>
      <point x="121" y="489"/>
      <point x="140" y="466" type="curve"/>
      <point x="83" y="441"/>
      <point x="50" y="394"/>
      <point x="50" y="332" type="curve" smooth="yes"/>
      <point x="50" y="255"/>
      <point x="89" y="215"/>
      <point x="200" y="177" type="curve" smooth="yes"/>
      <point x="298" y="142" type="line" smooth="yes"/>
      <point x="336" y="128"/>
      <point x="349" y="115"/>
      <point x="349" y="94" type="curve" smooth="yes"/>
      <point x="349" y="66"/>
      <point x="326" y="48"/>
      <point x="289" y="48" type="curve" smooth="yes"/>
      <point x="247" y="48"/>
      <point x="202" y="63"/>
      <point x="146" y="98" type="curve"/>
      <point x="87" y="4" type="line"/>
      <point x="145" y="-34"/>
      <point x="214" y="-54"/>
    </contour>
    <contour>
      <point x="348" y="255" type="curve" smooth="yes"/>
      <point x="234" y="293" type="line" smooth="yes"/>
      <point x="193" y="308"/>
      <point x="177" y="324"/>
      <point x="177" y="351" type="curve" smooth="yes"/>
      <point x="177" y="381"/>
      <point x="198" y="402"/>
      <point x="232" y="408" type="curve"/>
      <point x="239" y="406"/>
      <point x="245" y="403"/>
      <point x="252" y="401" type="curve" smooth="yes"/>
      <point x="366" y="363" type="line" smooth="yes"/>
      <point x="406" y="349"/>
      <point x="423" y="331"/>
      <point x="423" y="304" type="curve" smooth="yes"/>
      <point x="423" y="275"/>
      <point x="402" y="254"/>
      <point x="368" y="248" type="curve"/>
      <point x="362" y="250"/>
      <point x="355" y="253"/>
    </contour>
  </outline>
</glyph>
<glyph name="copyright" format="2">
  <advance width="600"/>
  <unicode hex="00A9"/>
  <outline>
    <contour>
      <point x="306" y="160" type="curve" smooth="yes"/>
      <point x="358" y="160"/>
      <point x="409" y="183"/>
      <point x="441" y="225" type="curve"/>
      <point x="383" y="299" type="line"/>
      <point x="359" y="270"/>
      <point x="338" y="257"/>
      <point x="309" y="257" type="curve" smooth="yes"/>
      <point x="265" y="257"/>
      <point x="232" y="297"/>
      <point x="232" y="351" type="curve" smooth="yes"/>
      <point x="232" y="405"/>
      <point x="265" y="445"/>
      <point x="309" y="445" type="curve" smooth="yes"/>
      <point x="338" y="445"/>
      <point x="359" y="432"/>
      <point x="383" y="403" type="curve"/>
      <point x="441" y="477" type="line"/>
      <point x="409" y="519"/>
      <point x="358" y="542"/>
      <point x="306" y="542" type="curve" smooth="yes"/>
      <point x="208" y="542"/>
      <point x="133" y="459"/>
      <point x="133" y="351" type="curve" smooth="yes"/>
      <point x="133" y="243"/>
      <point x="208" y="160"/>
    </contour>
    <contour>
      <point x="300" y="-11" type="curve" smooth="yes"/>
      <point x="464" y="-11"/>
      <point x="587" y="148"/>
      <point x="587" y="350" type="curve" smooth="yes"/>
      <point x="587" y="552"/>
      <point x="464" y="711"/>
      <point x="300" y="711" type="curve" smooth="yes"/>
      <point x="136" y="711"/>
      <point x="13" y="552"/>
      <point x="13" y="350" type="curve" smooth="yes"/>
      <point x="13" y="148"/>
      <point x="136" y="-11"/>
    </contour>
    <contour>
      <point x="300" y="46" type="curve" smooth="yes"/>
      <point x="165" y="46"/>
      <point x="72" y="181"/>
      <point x="72" y="350" type="curve" smooth="yes"/>
      <point x="72" y="519"/>
      <point x="165" y="654"/>
      <point x="300" y="654" type="curve" smooth="yes"/>
      <point x="435" y="654"/>
      <point x="528" y="519"/>
      <point x="528" y="350" type="curve" smooth="yes"/>
      <point x="528" y="181"/>
      <point x="435" y="46"/>
    </contour>
  </outline>
</glyph>
<glyph name="ordfeminine" format="2">
  <advance width="600"/>
  <unicode hex="00AA"/>
  <outline>
    <contour>
      <point x="228" y="298" type="curve" smooth="yes"/>
      <point x="269" y="298"/>
      <point x="301" y="309"/>
      <point x="336" y="335" type="curve"/>
      <point x="336" y="305" type="line"/>
      <point x="461" y="305" type="line"/>
      <point x="461" y="559" type="line" smooth="yes"/>
      <point x="461" y="655"/>
      <point x="397" y="711"/>
      <point x="285" y="711" type="curve" smooth="yes"/>
      <point x="226" y="711"/>
      <point x="165" y="697"/>
      <point x="97" y="667" type="curve"/>
      <point x="142" y="574" type="line"/>
      <point x="196" y="596"/>
      <point x="232" y="605"/>
      <point x="262" y="605" type="curve" smooth="yes"/>
      <point x="311" y="605"/>
      <point x="336" y="586"/>
      <point x="336" y="548" type="curve" smooth="yes"/>
      <point x="336" y="529" type="line"/>
      <point x="306" y="537"/>
      <point x="277" y="541"/>
      <point x="248" y="541" type="curve" smooth="yes"/>
      <point x="143" y="541"/>
      <point x="83" y="498"/>
      <point x="83" y="422" type="curve" smooth="yes"/>
      <point x="83" y="349"/>
      <point x="143" y="298"/>
    </contour>
    <contour>
      <point x="263" y="387" type="curve" smooth="yes"/>
      <point x="226" y="387"/>
      <point x="204" y="401"/>
      <point x="204" y="424" type="curve" smooth="yes"/>
      <point x="204" y="447"/>
      <point x="226" y="460"/>
      <point x="267" y="460" type="curve" smooth="yes"/>
      <point x="291" y="460"/>
      <point x="314" y="458"/>
      <point x="336" y="453" type="curve"/>
      <point x="336" y="403" type="line"/>
      <point x="316" y="393"/>
      <point x="292" y="387"/>
    </contour>
  </outline>
</glyph>
<glyph name="registered" format="2">
  <advance width="600"/>
  <unicode hex="00AE"/>
  <outline>
    <contour>
      <point x="300" y="293" type="curve" smooth="yes"/>
      <point x="411" y="293"/>
      <point x="500" y="386"/>
      <point x="500" y="502" type="curve" smooth="yes"/>
      <point x="500" y="618"/>
      <point x="411" y="711"/>
      <point x="300" y="711" type="curve" smooth="yes"/>
      <point x="189" y="711"/>
      <point x="100" y="618"/>
      <point x="100" y="502" type="curve" smooth="yes"/>
      <point x="100" y="386"/>
      <point x="189" y="293"/>
    </contour>
    <contour>
      <point x="300" y="340" type="curve" smooth="yes"/>
      <point x="214" y="340"/>
      <point x="151" y="408"/>
      <point x="151" y="502" type="curve" smooth="yes"/>
      <point x="151" y="596"/>
      <point x="214" y="664"/>
      <point x="300" y="664" type="curve" smooth="yes"/>
      <point x="386" y="664"/>
      <point x="449" y="596"/>
      <point x="449" y="502" type="curve" smooth="yes"/>
      <point x="449" y="408"/>
      <point x="386" y="340"/>
    </contour>
    <contour>
      <point x="229" y="409" type="line"/>
      <point x="279" y="409" type="line"/>
      <point x="279" y="474" type="line"/>
      <point x="298" y="474" type="line"/>
      <point x="330" y="409" type="line"/>
      <point x="385" y="409" type="line"/>
      <point x="345" y="485" type="line"/>
      <point x="364" y="496"/>
      <point x="375" y="516"/>
      <point x="375" y="537" type="curve" smooth="yes"/>
      <point x="375" y="573"/>
      <point x="351" y="597"/>
      <point x="314" y="597" type="curve" smooth="yes"/>
      <point x="229" y="597" type="line"/>
    </contour>
    <contour>
      <point x="303" y="557" type="line" smooth="yes"/>
      <point x="318" y="557"/>
      <point x="325" y="549"/>
      <point x="325" y="534" type="curve" smooth="yes"/>
      <point x="325" y="520"/>
      <point x="316" y="511"/>
      <point x="302" y="511" type="curve" smooth="yes"/>
      <point x="279" y="511" type="line"/>
      <point x="279" y="557" type="line"/>
    </contour>
  </outline>
</glyph>
<glyph name="macron" format="2">
  <advance width="600"/>
  <unicode hex="00AF"/>
  <outline>
    <contour>
      <point x="136" y="626" type="line"/>
      <point x="465" y="626" type="line"/>
      <point x="465" y="726" type="line"/>
      <point x="136" y="726" type="line"/>
    </contour>
  </outline>
</glyph>
<glyph name="plusminus" format="2">
  <advance width="600"/>
  <unicode hex="00B1"/>
  <outline>
    <contour>
      <point x="239" y="209" type="line"/>
      <point x="361" y="209" type="line"/>
      <point x="361" y="361" type="line"/>
      <point x="525" y="361" type="line"/>
      <point x="525" y="480" type="line"/>
      <point x="361" y="480" type="line"/>
      <point x="361" y="629" type="line"/>
      <point x="239" y="629" type="line"/>
      <point x="239" y="480" type="line"/>
      <point x="75" y="480" type="line"/>
      <point x="75" y="361" type="line"/>
      <point x="239" y="361" type="line"/>
    </contour>
    <contour>
      <point x="75" y="-1" type="line"/>
      <point x="525" y="-1" type="line"/>
      <point x="525" y="119" type="line"/>
      <point x="75" y="119" type="line"/>
    </contour>
  </outline>
</glyph>
<glyph name="ordmasculine" format="2">
  <advance width="600"/>
  <unicode hex="00BA"/>
  <outline>
    <contour>
      <point x="294" y="295" type="curve" smooth="yes"/>
      <point x="416" y="295"/>
      <point x="511" y="387"/>
      <point x="511" y="503" type="curve" smooth="yes"/>
      <point x="511" y="619"/>
      <point x="416" y="711"/>
      <point x="294" y="711" type="curve" smooth="yes"/>
      <point x="172" y="711"/>
      <point x="77" y="619"/>
      <point x="77" y="503" type="curve" smooth="yes"/>
      <point x="77" y="387"/>
      <point x="172" y="295"/>
    </contour>
    <contour>
      <point x="294" y="405" type="curve" smooth="yes"/>
      <point x="242" y="405"/>
      <point x="201" y="448"/>
      <point x="201" y="503" type="curve" smooth="yes"/>
      <point x="201" y="558"/>
      <point x="242" y="601"/>
      <point x="294" y="601" type="curve" smooth="yes"/>
      <point x="346" y="601"/>
      <point x="388" y="558"/>
      <point x="388" y="503" type="curve" smooth="yes"/>
      <point x="388" y="448"/>
      <point x="346" y="405"/>
    </contour>
  </outline>
</glyph>
<glyph name="onequarter" format="2">
  <advance width="600"/>
  <unicode hex="00BC"/>
  <outline>
    <contour>
      <point x="96" y="416" type="line"/>
      <point x="181" y="416" type="line"/>
      <point x="181" y="700" type="line"/>
      <point x="128" y="700" type="line"/>
      <point x="35" y="661" type="line"/>
      <point x="35" y="589" type="line"/>
      <point x="96" y="614" type="line"/>
    </contour>
    <contour>
      <point x="461" y="0" type="line"/>
      <point x="545" y="0" type="line"/>
      <point x="545" y="56" type="line"/>
      <point x="579" y="56" type="line"/>
      <point x="579" y="122" type="line"/>
      <point x="545" y="122" type="line"/>
      <point x="545" y="284" type="line"/>
      <point x="447" y="284" type="line"/>
      <point x="313" y="125" type="line"/>
      <point x="313" y="56" type="line"/>
      <point x="461" y="56" type="line"/>
    </contour>
    <contour>
      <point x="395" y="122" type="line"/>
      <point x="461" y="199" type="line"/>
      <point x="461" y="122" type="line"/>
    </contour>
    <component base="fraction"/>
  </outline>
</glyph>
<glyph name="onehalf" format="2">
  <advance width="600"/>
  <unicode hex="00BD"/>
  <outline>
    <contour>
      <point x="96" y="416" type="line"/>
      <point x="181" y="416" type="line"/>
      <point x="181" y="700" type="line"/>
      <point x="128" y="700" type="line"/>
      <point x="35" y="661" type="line"/>
      <point x="35" y="589" type="line"/>
      <point x="96" y="614" type="line"/>
    </contour>
    <contour>
      <point x="340" y="0" type="line"/>
      <point x="554" y="0" type="line"/>
      <point x="554" y="70" type="line"/>
      <point x="448" y="70" type="line"/>
      <point x="517" y="135" type="line" smooth="yes"/>
      <point x="539" y="155"/>
      <point x="551" y="178"/>
      <point x="551" y="201" type="curve" smooth="yes"/>
      <point x="551" y="251"/>
      <point x="511" y="288"/>
      <point x="443" y="288" type="curve" smooth="yes"/>
      <point x="401" y="288"/>
      <point x="360" y="270"/>
      <point x="325" y="236" type="curve"/>
      <point x="371" y="181" type="line"/>
      <point x="402" y="211"/>
      <point x="423" y="215"/>
      <point x="440" y="215" type="curve" smooth="yes"/>
      <point x="460" y="215"/>
      <point x="470" y="206"/>
      <point x="470" y="195" type="curve"/>
      <point x="470" y="187"/>
      <point x="467" y="182"/>
      <point x="460" y="175" type="curve" smooth="yes"/>
      <point x="340" y="61" type="line"/>
    </contour>
    <component base="fraction"/>
  </outline>
</glyph>
<glyph name="AE" format="2">
  <advance width="600"/>
  <unicode hex="00C6"/>
  <outline>
    <contour>
      <point x="-11" y="0" type="line"/>
      <point x="133" y="0" type="line"/>
      <point x="160" y="123" type="line"/>
      <point x="254" y="123" type="line"/>
      <point x="254" y="0" type="line"/>
      <point x="577" y="0" type="line"/>
      <point x="577" y="144" type="line"/>
      <point x="406" y="144" type="line"/>
      <point x="406" y="283" type="line"/>
      <point x="508" y="283" type="line"/>
      <point x="508" y="423" type="line"/>
      <point x="406" y="423" type="line"/>
      <point x="406" y="556" type="line"/>
      <point x="573" y="556" type="line"/>
      <point x="573" y="700" type="line"/>
      <point x="162" y="700" type="line"/>
    </contour>
    <contour>
      <point x="187" y="248" type="line"/>
      <point x="254" y="555" type="line"/>
      <point x="254" y="248" type="line"/>
    </contour>
  </outline>
</glyph>
<glyph name="Thorn" format="2">
  <advance width="600"/>
  <unicode hex="00DE"/>
  <outline>
    <contour>
      <point x="57" y="0" type="line"/>
      <point x="229" y="0" type="line"/>
      <point x="229" y="123" type="line"/>
      <point x="324" y="123" type="line" smooth="yes"/>
      <point x="473" y="123"/>
      <point x="571" y="221"/>
      <point x="571" y="348" type="curve" smooth="yes"/>
      <point x="571" y="482"/>
      <point x="473" y="579"/>
      <point x="324" y="579" type="curve" smooth="yes"/>
      <point x="229" y="579" type="line"/>
      <point x="229" y="700" type="line"/>
      <point x="57" y="700" type="line"/>
    </contour>
    <contour>
      <point x="229" y="261" type="line"/>
      <point x="229" y="437" type="line"/>
      <point x="294" y="437" type="line" smooth="yes"/>
      <point x="363" y="437"/>
      <point x="397" y="399"/>
      <point x="397" y="349" type="curve" smooth="yes"/>
      <point x="397" y="299"/>
      <point x="363" y="261"/>
      <point x="294" y="261" type="curve" smooth="yes"/>
    </contour>
  </outline>
</glyph>
<glyph name="germandbls" format="2">
  <advance width="600"/>
  <unicode hex="00DF"/>
  <outline>
    <contour>
      <point x="391" y="-11" type="curve" smooth="yes"/>
      <point x="503" y="-11"/>
      <point x="586" y="61"/>
      <point x="586" y="160" type="curve" smooth="yes"/>
      <point x="586" y="333"/>
      <point x="378" y="306"/>
      <point x="378" y="374" type="curve" smooth="yes"/>
      <point x="378" y="430"/>
      <point x="498" y="440"/>
      <point x="498" y="564" type="curve" smooth="yes"/>
      <point x="498" y="665"/>
      <point x="409" y="737"/>
      <point x="270" y="737" type="curve" smooth="yes"/>
      <point x="122" y="737"/>
      <point x="26" y="645"/>
      <point x="26" y="509" type="curve" smooth="yes"/>
      <point x="26" y="0" type="line"/>
      <point x="187" y="0" type="line"/>
      <point x="187" y="518" type="line" smooth="yes"/>
      <point x="187" y="573"/>
      <point x="228" y="608"/>
      <point x="276" y="608" type="curve" smooth="yes"/>
      <point x="321" y="608"/>
      <point x="352" y="584"/>
      <point x="352" y="546" type="curve"/>
      <point x="352" y="481"/>
      <point x="232" y="449"/>
      <point x="232" y="348" type="curve" smooth="yes"/>
      <point x="232" y="201"/>
      <point x="439" y="241"/>
      <point x="439" y="154" type="curve" smooth="yes"/>
      <point x="439" y="122"/>
      <point x="414" y="102"/>
      <point x="375" y="102" type="curve" smooth="yes"/>
      <point x="344" y="102"/>
      <point x="317" y="116"/>
      <point x="282" y="141" type="curve"/>
      <point x="214" y="42" type="line"/>
      <point x="264" y="5"/>
      <point x="315" y="-11"/>
    </contour>
  </outline>
</glyph>
<glyph name="ccedilla" format="2">
  <advance width="600"/>
  <unicode hex="00E7"/>
  <outline>
    <contour>
      <point x="317" y="-254" type="curve" smooth="yes"/>
      <point x="392" y="-254"/>
      <point x="449" y="-206"/>
      <point x="449" y="-144" type="curve" smooth="yes"/>
      <point x="449" y="-95"/>
      <point x="410" y="-63"/>
      <point x="347" y="-58" type="curve"/>
      <point x="359" y="-8" type="line"/>
      <point x="449" y="3"/>
      <point x="524" y="48"/>
      <point x="566" y="114" type="curve"/>
      <point x="444" y="203" type="line"/>
      <point x="421" y="157"/>
      <point x="375" y="128"/>
      <point x="320" y="128" type="curve" smooth="yes"/>
      <point x="250" y="128"/>
      <point x="198" y="183"/>
      <point x="198" y="257" type="curve" smooth="yes"/>
      <point x="198" y="331"/>
      <point x="250" y="386"/>
      <point x="320" y="386" type="curve" smooth="yes"/>
      <point x="375" y="386"/>
      <point x="421" y="357"/>
      <point x="444" y="311" type="curve"/>
      <point x="566" y="400" type="line"/>
      <point x="518" y="475"/>
      <point x="427" y="524"/>
      <point x="319" y="524" type="curve" smooth="yes"/>
      <point x="159" y="524"/>
      <point x="37" y="408"/>
      <point x="37" y="257" type="curve" smooth="yes"/>
      <point x="37" y="117"/>
      <point x="143" y="6"/>
      <point x="286" y="-8" type="curve"/>
      <point x="261" y="-111" type="line"/>
      <point x="306" y="-111" type="line" smooth="yes"/>
      <point x="341" y="-111"/>
      <point x="362" y="-124"/>
      <point x="362" y="-146" type="curve" smooth="yes"/>
      <point x="362" y="-170"/>
      <point x="343" y="-183"/>
      <point x="308" y="-183" type="curve" smooth="yes"/>
      <point x="282" y="-183"/>
      <point x="254" y="-173"/>
      <point x="231" y="-155" type="curve"/>
      <point x="182" y="-212" type="line"/>
      <point x="214" y="-240"/>
      <point x="258" y="-254"/>
    </contour>
  </outline>
</glyph>
<glyph name="eth" format="2">
  <advance width="600"/>
  <unicode hex="00F0"/>
  <outline>
    <contour>
      <point x="291" y="-10" type="curve" smooth="yes"/>
      <point x="456" y="-10"/>
      <point x="558" y="116"/>
      <point x="558" y="309" type="curve" smooth="yes"/>
      <point x="558" y="429"/>
      <point x="518" y="537"/>
      <point x="446" y="624" type="curve"/>
      <point x="515" y="671" type="line"/>
      <point x="462" y="747" type="line"/>
      <point x="379" y="691" type="line"/>
      <point x="343" y="721"/>
      <point x="302" y="747"/>
      <point x="257" y="770" type="curve"/>
      <point x="175" y="664" type="line"/>
      <point x="207" y="649"/>
      <point x="236" y="631"/>
      <point x="263" y="611" type="curve"/>
      <point x="199" y="568" type="line"/>
      <point x="252" y="492" type="line"/>
      <point x="332" y="547" type="line"/>
      <point x="371" y="501"/>
      <point x="396" y="450"/>
      <point x="404" y="399" type="curve"/>
      <point x="379" y="437"/>
      <point x="322" y="462"/>
      <point x="259" y="462" type="curve" smooth="yes"/>
      <point x="139" y="462"/>
      <point x="42" y="361"/>
      <point x="42" y="235" type="curve" smooth="yes"/>
      <point x="42" y="97"/>
      <point x="150" y="-10"/>
    </contour>
    <contour>
      <point x="297" y="128" type="curve" smooth="yes"/>
      <point x="239" y="128"/>
      <point x="192" y="176"/>
      <point x="192" y="235" type="curve" smooth="yes"/>
      <point x="192" y="294"/>
      <point x="239" y="342"/>
      <point x="297" y="342" type="curve" smooth="yes"/>
      <point x="355" y="342"/>
      <point x="402" y="294"/>
      <point x="402" y="235" type="curve" smooth="yes"/>
      <point x="402" y="176"/>
      <point x="355" y="128"/>
    </contour>
  </outline>
</glyph>
<glyph name="divide" format="2">
  <advance width="600"/>
  <unicode hex="00F7"/>
  <outline>
    <contour>
      <point x="300" y="36" type="curve" smooth="yes"/>
      <point x="350" y="36"/>
      <point x="391" y="78"/>
      <point x="391" y="128" type="curve" smooth="yes"/>
      <point x="391" y="178"/>
      <point x="350" y="220"/>
      <point x="300" y="220" type="curve" smooth="yes"/>
      <point x="250" y="220"/>
      <point x="209" y="178"/>
      <point x="209" y="128" type="curve" smooth="yes"/>
      <point x="209" y="78"/>
      <point x="250" y="36"/>
    </contour>
    <contour>
      <point x="300" y="498" type="curve" smooth="yes"/>
      <point x="350" y="498"/>
      <point x="391" y="540"/>
      <point x="391" y="590" type="curve" smooth="yes"/>
      <point x="391" y="640"/>
      <point x="350" y="682"/>
      <point x="300" y="682" type="curve" smooth="yes"/>
      <point x="250" y="682"/>
      <point x="209" y="640"/>
      <point x="209" y="590" type="curve" smooth="yes"/>
      <point x="209" y="540"/>
      <point x="250" y="498"/>
    </contour>
    <contour>
      <point x="75" y="299" type="line"/>
      <point x="525" y="299" type="line"/>
      <point x="525" y="419" type="line"/>
      <point x="75" y="419" type="line"/>
    </contour>
  </outline>
</glyph>
<glyph name="thorn" format="2">
  <advance width="600"/>
  <unicode hex="00FE"/>
  <outline>
    <contour>
      <point x="59" y="-209" type="line"/>
      <point x="221" y="-209" type="line"/>
      <point x="221" y="43" type="line"/>
      <point x="253" y="11"/>
      <point x="294" y="-8"/>
      <point x="340" y="-8" type="curve" smooth="yes"/>
      <point x="466" y="-8"/>
      <point x="569" y="107"/>
      <point x="569" y="258" type="curve" smooth="yes"/>
      <point x="569" y="409"/>
      <point x="466" y="524"/>
      <point x="340" y="524" type="curve" smooth="yes"/>
      <point x="294" y="524"/>
      <point x="253" y="505"/>
      <point x="221" y="473" type="curve"/>
      <point x="221" y="737" type="line"/>
      <point x="59" y="712" type="line"/>
    </contour>
    <contour>
      <point x="302" y="396" type="curve" smooth="yes"/>
      <point x="369" y="396"/>
      <point x="410" y="341"/>
      <point x="410" y="258" type="curve" smooth="yes"/>
      <point x="410" y="175"/>
      <point x="369" y="120"/>
      <point x="302" y="120" type="curve" smooth="yes"/>
      <point x="271" y="120"/>
      <point x="243" y="132"/>
      <point x="221" y="152" type="curve"/>
      <point x="221" y="364" type="line"/>
      <point x="243" y="384"/>
      <point x="271" y="396"/>
    </contour>
  </outline>
</glyph>
<glyph name="Aogonek" format="2">
  <advance width="600"/>
  <unicode hex="0104"/>
  <outline>
    <contour>
      <point x="1" y="0" type="line"/>
      <point x="165" y="0" type="line"/>
      <point x="201" y="137" type="line"/>
      <point x="393" y="137" type="line"/>
      <point x="428" y="0" type="line"/>
      <point x="515" y="0" type="line"/>
      <point x="454" y="-41"/>
      <point x="427" y="-82"/>
      <point x="427" y="-132" type="curve" smooth="yes"/>
      <point x="427" y="-191"/>
      <point x="470" y="-231"/>
      <point x="535" y="-231" type="curve" smooth="yes"/>
      <point x="571" y="-231"/>
      <point x="606" y="-222"/>
      <point x="628" y="-208" type="curve"/>
      <point x="608" y="-138" type="line"/>
      <point x="598" y="-145"/>
      <point x="581" y="-149"/>
      <point x="563" y="-149" type="curve" smooth="yes"/>
      <point x="533" y="-149"/>
      <point x="514" y="-132"/>
      <point x="514" y="-103" type="curve" smooth="yes"/>
      <point x="514" y="-67"/>
      <point x="541" y="-35"/>
      <point x="599" y="0" type="curve"/>
      <point x="398" y="700" type="line"/>
      <point x="202" y="700" type="line"/>
    </contour>
    <contour>
      <point x="236" y="270" type="line"/>
      <point x="298" y="509" type="line"/>
      <point x="359" y="270" type="line"/>
    </contour>
  </outline>
</glyph>
<glyph name="aogonek" format="2">
  <advance width="600"/>
  <unicode hex="0105"/>
  <outline>
    <contour>
      <point x="225" y="-8" type="curve" smooth="yes"/>
      <point x="280" y="-8"/>
      <point x="322" y="9"/>
      <point x="368" y="49" type="curve"/>
      <point x="368" y="0" type="line"/>
      <point x="444" y="0" type="line"/>
      <point x="383" y="-41"/>
      <point x="356" y="-82"/>
      <point x="356" y="-132" type="curve" smooth="yes"/>
      <point x="356" y="-191"/>
      <point x="399" y="-231"/>
      <point x="464" y="-231" type="curve" smooth="yes"/>
      <point x="500" y="-231"/>
      <point x="535" y="-222"/>
      <point x="557" y="-208" type="curve"/>
      <point x="537" y="-138" type="line"/>
      <point x="527" y="-145"/>
      <point x="510" y="-149"/>
      <point x="492" y="-149" type="curve" smooth="yes"/>
      <point x="462" y="-149"/>
      <point x="443" y="-132"/>
      <point x="443" y="-103" type="curve" smooth="yes"/>
      <point x="443" y="-67"/>
      <point x="470" y="-35"/>
      <point x="528" y="0" type="curve"/>
      <point x="528" y="330" type="line" smooth="yes"/>
      <point x="528" y="453"/>
      <point x="445" y="524"/>
      <point x="302" y="524" type="curve" smooth="yes"/>
      <point x="226" y="524"/>
      <point x="149" y="506"/>
      <point x="63" y="468" type="curve"/>
      <point x="121" y="353" type="line"/>
      <point x="181" y="378"/>
      <point x="227" y="391"/>
      <point x="266" y="391" type="curve" smooth="yes"/>
      <point x="335" y="391"/>
      <point x="368" y="366"/>
      <point x="368" y="316" type="curve" smooth="yes"/>
      <point x="368" y="272" type="line"/>
      <point x="322" y="290"/>
      <point x="285" y="298"/>
      <point x="248" y="298" type="curve" smooth="yes"/>
      <point x="121" y="298"/>
      <point x="47" y="243"/>
      <point x="47" y="148" type="curve" smooth="yes"/>
      <point x="47" y="56"/>
      <point x="120" y="-8"/>
    </contour>
    <contour>
      <point x="196" y="151" type="curve" smooth="yes"/>
      <point x="196" y="184"/>
      <point x="227" y="202"/>
      <point x="279" y="202" type="curve" smooth="yes"/>
      <point x="308" y="202"/>
      <point x="338" y="197"/>
      <point x="368" y="189" type="curve"/>
      <point x="368" y="128" type="line"/>
      <point x="341" y="109"/>
      <point x="309" y="99"/>
      <point x="275" y="99" type="curve"/>
      <point x="226" y="99"/>
      <point x="196" y="118"/>
    </contour>
  </outline>
</glyph>
<glyph name="dcaron" format="2">
  <advance width="600"/>
  <unicode hex="010F"/>
  <outline>
    <contour>
      <point x="511" y="498" type="line"/>
      <point x="600" y="498" type="line"/>
      <point x="640" y="737" type="line"/>
      <point x="515" y="714" type="line"/>
    </contour>
    <contour>
      <point x="208" y="-3" type="curve"/>
      <point x="251" y="-3"/>
      <point x="292" y="18"/>
      <point x="321" y="52" type="curve"/>
      <point x="321" y="0" type="line"/>
      <point x="471" y="0" type="line"/>
      <point x="471" y="737" type="line"/>
      <point x="319" y="714" type="line"/>
      <point x="319" y="470" type="line"/>
      <point x="289" y="503"/>
      <point x="256" y="519"/>
      <point x="220" y="519" type="curve"/>
      <point x="104" y="519"/>
      <point x="21" y="411"/>
      <point x="21" y="259" type="curve" smooth="yes"/>
      <point x="21" y="107"/>
      <point x="99" y="-3"/>
    </contour>
    <contour>
      <point x="170" y="258" type="curve" smooth="yes"/>
      <point x="170" y="338"/>
      <point x="205" y="391"/>
      <point x="258" y="391" type="curve"/>
      <point x="280" y="391"/>
      <point x="300" y="381"/>
      <point x="319" y="362" type="curve"/>
      <point x="319" y="156" type="line"/>
      <point x="300" y="134"/>
      <point x="281" y="126"/>
      <point x="258" y="126" type="curve"/>
      <point x="206" y="126"/>
      <point x="170" y="180"/>
    </contour>
  </outline>
</glyph>
<glyph name="eogonek" format="2">
  <advance width="600"/>
  <unicode hex="0119"/>
  <outline>
    <contour>
      <point x="38" y="257" type="curve" smooth="yes"/>
      <point x="38" y="109"/>
      <point x="156" y="-6"/>
      <point x="307" y="-10" type="curve"/>
      <point x="256" y="-47"/>
      <point x="233" y="-86"/>
      <point x="233" y="-132" type="curve" smooth="yes"/>
      <point x="233" y="-191"/>
      <point x="276" y="-231"/>
      <point x="341" y="-231" type="curve" smooth="yes"/>
      <point x="377" y="-231"/>
      <point x="412" y="-222"/>
      <point x="434" y="-208" type="curve"/>
      <point x="414" y="-138" type="line"/>
      <point x="404" y="-145"/>
      <point x="387" y="-149"/>
      <point x="369" y="-149" type="curve" smooth="yes"/>
      <point x="339" y="-149"/>
      <point x="320" y="-132"/>
      <point x="320" y="-103" type="curve" smooth="yes"/>
      <point x="320" y="-67"/>
      <point x="347" y="-35"/>
      <point x="405" y="0" type="curve"/>
      <point x="454" y="12"/>
      <point x="497" y="36"/>
      <point x="538" y="76" type="curve"/>
      <point x="434" y="169" type="line"/>
      <point x="408" y="137"/>
      <point x="370" y="119"/>
      <point x="323" y="119" type="curve" smooth="yes"/>
      <point x="262" y="119"/>
      <point x="213" y="158"/>
      <point x="197" y="216" type="curve"/>
      <point x="567" y="216" type="line"/>
      <point x="567" y="251" type="line" smooth="yes"/>
      <point x="567" y="411"/>
      <point x="458" y="524"/>
      <point x="303" y="524" type="curve" smooth="yes"/>
      <point x="152" y="524"/>
      <point x="38" y="408"/>
    </contour>
    <contour>
      <point x="198" y="308" type="line"/>
      <point x="213" y="365"/>
      <point x="253" y="398"/>
      <point x="308" y="398" type="curve" smooth="yes"/>
      <point x="363" y="398"/>
      <point x="403" y="365"/>
      <point x="417" y="308" type="curve"/>
    </contour>
  </outline>
</glyph>
<glyph name="Hbar" format="2">
  <advance width="600"/>
  <unicode hex="0126"/>
  <outline>
    <contour>
      <point x="46" y="0" type="line"/>
      <point x="218" y="0" type="line"/>
      <point x="218" y="277" type="line"/>
      <point x="381" y="277" type="line"/>
      <point x="381" y="0" type="line"/>
      <point x="553" y="0" type="line"/>
      <point x="553" y="493" type="line"/>
      <point x="600" y="493" type="line"/>
      <point x="600" y="613" type="line"/>
      <point x="553" y="613" type="line"/>
      <point x="553" y="700" type="line"/>
      <point x="381" y="700" type="line"/>
      <point x="381" y="613" type="line"/>
      <point x="218" y="613" type="line"/>
      <point x="218" y="700" type="line"/>
      <point x="46" y="700" type="line"/>
      <point x="46" y="613" type="line"/>
      <point x="0" y="613" type="line"/>
      <point x="0" y="493" type="line"/>
      <point x="46" y="493" type="line"/>
    </contour>
    <contour>
      <point x="218" y="417" type="line"/>
      <point x="218" y="493" type="line"/>
      <point x="381" y="493" type="line"/>
      <point x="381" y="417" type="line"/>
    </contour>
  </outline>
</glyph>
<glyph name="dotlessi" format="2">
  <advance width="600"/>
  <unicode hex="0131"/>
  <note>
Version created Wed Nov 11 16:21:20 2020
</note>
  <anchor x="305" y="516" name="top"/>
  <anchor x="512" y="0" name="bottom"/>
  <outline>
    <contour>
      <point x="434" y="-10" type="curve" smooth="yes"/>
      <point x="479" y="-10"/>
      <point x="536" y="0"/>
      <point x="558" y="11" type="curve"/>
      <point x="558" y="142" type="line"/>
      <point x="524" y="128"/>
      <point x="496" y="126"/>
      <point x="466" y="126" type="curve" smooth="yes"/>
      <point x="404" y="126"/>
      <point x="382" y="149"/>
      <point x="382" y="214" type="curve" smooth="yes"/>
      <point x="382" y="516" type="line"/>
      <point x="42" y="516" type="line"/>
      <point x="42" y="391" type="line"/>
      <point x="220" y="391" type="line"/>
      <point x="220" y="182" type="line" smooth="yes"/>
      <point x="220" y="55"/>
      <point x="293" y="-10"/>
    </contour>
  </outline>
</glyph>
<glyph name="IJ" format="2">
  <advance width="600"/>
  <unicode hex="0132"/>
  <outline>
    <contour>
      <point x="268" y="154" type="curve"/>
      <point x="268" y="7" type="line"/>
      <point x="295" y="-4"/>
      <point x="334" y="-11"/>
      <point x="371" y="-11" type="curve" smooth="yes"/>
      <point x="483" y="-11"/>
      <point x="553" y="62"/>
      <point x="553" y="171" type="curve" smooth="yes"/>
      <point x="553" y="700" type="line"/>
      <point x="381" y="700" type="line"/>
      <point x="381" y="195" type="line" smooth="yes"/>
      <point x="381" y="164"/>
      <point x="363" y="143"/>
      <point x="331" y="143" type="curve" smooth="yes"/>
      <point x="310" y="143"/>
      <point x="294" y="145"/>
    </contour>
    <contour>
      <point x="47" y="0" type="line"/>
      <point x="219" y="0" type="line"/>
      <point x="219" y="700" type="line"/>
      <point x="47" y="700" type="line"/>
    </contour>
  </outline>
</glyph>
<glyph name="Eng" format="2">
  <advance width="600"/>
  <unicode hex="014A"/>
  <outline>
    <contour>
      <point x="345" y="-219" type="curve" smooth="yes"/>
      <point x="481" y="-219"/>
      <point x="553" y="-151"/>
      <point x="553" y="-20" type="curve" smooth="yes"/>
      <point x="553" y="700" type="line"/>
      <point x="411" y="700" type="line"/>
      <point x="413" y="306" type="line"/>
      <point x="209" y="700" type="line"/>
      <point x="47" y="700" type="line"/>
      <point x="47" y="0" type="line"/>
      <point x="189" y="0" type="line"/>
      <point x="187" y="409" type="line"/>
      <point x="400" y="2" type="line"/>
      <point x="400" y="-5" type="line" smooth="yes"/>
      <point x="400" y="-64"/>
      <point x="383" y="-85"/>
      <point x="333" y="-85" type="curve" smooth="yes"/>
      <point x="317" y="-85"/>
      <point x="286" y="-83"/>
      <point x="255" y="-72" type="curve"/>
      <point x="255" y="-204" type="line"/>
      <point x="291" y="-214"/>
      <point x="323" y="-219"/>
    </contour>
  </outline>
</glyph>
<glyph name="OE" format="2">
  <advance width="600"/>
  <unicode hex="0152"/>
  <outline>
    <contour>
      <point x="12" y="350" type="curve" smooth="yes"/>
      <point x="12" y="140"/>
      <point x="121" y="0"/>
      <point x="284" y="0" type="curve" smooth="yes"/>
      <point x="592" y="0" type="line"/>
      <point x="592" y="144" type="line"/>
      <point x="423" y="144" type="line"/>
      <point x="423" y="283" type="line"/>
      <point x="523" y="283" type="line"/>
      <point x="523" y="423" type="line"/>
      <point x="423" y="423" type="line"/>
      <point x="423" y="556" type="line"/>
      <point x="588" y="556" type="line"/>
      <point x="588" y="700" type="line"/>
      <point x="284" y="700" type="line" smooth="yes"/>
      <point x="121" y="700"/>
      <point x="12" y="560"/>
    </contour>
    <contour>
      <point x="174" y="350" type="curve" smooth="yes"/>
      <point x="174" y="467"/>
      <point x="211" y="545"/>
      <point x="269" y="555" type="curve"/>
      <point x="269" y="145" type="line"/>
      <point x="211" y="155"/>
      <point x="174" y="233"/>
    </contour>
  </outline>
</glyph>
<glyph name="oe" format="2">
  <advance width="600"/>
  <unicode hex="0153"/>
  <guideline x="447" y="403" angle="0" identifier="HEBpG9pS7J"/>
  <outline>
    <contour>
      <point x="199" y="-10" type="curve" smooth="yes"/>
      <point x="246" y="-10"/>
      <point x="286" y="12"/>
      <point x="315" y="52" type="curve"/>
      <point x="349" y="12"/>
      <point x="396" y="-10"/>
      <point x="453" y="-10" type="curve" smooth="yes"/>
      <point x="507" y="-10"/>
      <point x="554" y="5"/>
      <point x="597" y="36" type="curve"/>
      <point x="543" y="145" type="line"/>
      <point x="520" y="128"/>
      <point x="492" y="115"/>
      <point x="462" y="115" type="curve" smooth="yes"/>
      <point x="418" y="115"/>
      <point x="393" y="146"/>
      <point x="387" y="217" type="curve"/>
      <point x="590" y="217" type="line"/>
      <point x="590" y="278" type="line" smooth="yes"/>
      <point x="590" y="431"/>
      <point x="524" y="524"/>
      <point x="426" y="524" type="curve" smooth="yes"/>
      <point x="382" y="524"/>
      <point x="343" y="502"/>
      <point x="314" y="464" type="curve"/>
      <point x="285" y="502"/>
      <point x="246" y="524"/>
      <point x="199" y="524" type="curve" smooth="yes"/>
      <point x="87" y="524"/>
      <point x="15" y="420"/>
      <point x="15" y="257" type="curve" smooth="yes"/>
      <point x="15" y="94"/>
      <point x="87" y="-10"/>
    </contour>
    <contour>
      <point x="421" y="402" type="curve" smooth="yes"/>
      <point x="441" y="402"/>
      <point x="454" y="376"/>
      <point x="456" y="306" type="curve"/>
      <point x="386" y="306" type="line"/>
      <point x="390" y="371"/>
      <point x="401" y="402"/>
    </contour>
    <contour>
      <point x="203" y="113" type="curve" smooth="yes"/>
      <point x="173" y="113"/>
      <point x="158" y="161"/>
      <point x="158" y="257" type="curve" smooth="yes"/>
      <point x="158" y="353"/>
      <point x="173" y="401"/>
      <point x="203" y="401" type="curve" smooth="yes"/>
      <point x="233" y="401"/>
      <point x="248" y="353"/>
      <point x="248" y="257" type="curve" smooth="yes"/>
      <point x="248" y="161"/>
      <point x="233" y="113"/>
    </contour>
  </outline>
</glyph>
<glyph name="Scedilla" format="2">
  <advance width="600"/>
  <unicode hex="015E"/>
  <outline>
    <contour>
      <point x="302" y="-254" type="curve" smooth="yes"/>
      <point x="377" y="-254"/>
      <point x="434" y="-206"/>
      <point x="434" y="-144" type="curve" smooth="yes"/>
      <point x="434" y="-95"/>
      <point x="395" y="-63"/>
      <point x="332" y="-58" type="curve"/>
      <point x="344" y="-9" type="line"/>
      <point x="488" y="6"/>
      <point x="578" y="93"/>
      <point x="578" y="216" type="curve" smooth="yes"/>
      <point x="578" y="484"/>
      <point x="188" y="379"/>
      <point x="188" y="504" type="curve" smooth="yes"/>
      <point x="188" y="543"/>
      <point x="224" y="571"/>
      <point x="287" y="571" type="curve" smooth="yes"/>
      <point x="355" y="571"/>
      <point x="417" y="547"/>
      <point x="480" y="499" type="curve"/>
      <point x="567" y="624" type="line"/>
      <point x="499" y="678"/>
      <point x="398" y="711"/>
      <point x="296" y="711" type="curve" smooth="yes"/>
      <point x="126" y="711"/>
      <point x="26" y="626"/>
      <point x="26" y="489" type="curve" smooth="yes"/>
      <point x="26" y="224"/>
      <point x="410" y="338"/>
      <point x="410" y="200" type="curve" smooth="yes"/>
      <point x="410" y="158"/>
      <point x="370" y="129"/>
      <point x="304" y="129" type="curve" smooth="yes"/>
      <point x="242" y="129"/>
      <point x="184" y="153"/>
      <point x="95" y="212" type="curve"/>
      <point x="11" y="83" type="line"/>
      <point x="93" y="27"/>
      <point x="176" y="-5"/>
      <point x="271" y="-10" type="curve"/>
      <point x="246" y="-111" type="line"/>
      <point x="291" y="-111" type="line" smooth="yes"/>
      <point x="326" y="-111"/>
      <point x="347" y="-124"/>
      <point x="347" y="-146" type="curve" smooth="yes"/>
      <point x="347" y="-170"/>
      <point x="328" y="-183"/>
      <point x="293" y="-183" type="curve" smooth="yes"/>
      <point x="267" y="-183"/>
      <point x="239" y="-173"/>
      <point x="216" y="-155" type="curve"/>
      <point x="167" y="-212" type="line"/>
      <point x="199" y="-240"/>
      <point x="243" y="-254"/>
    </contour>
  </outline>
</glyph>
<glyph name="Tcedilla" format="2">
  <advance width="600"/>
  <unicode hex="0162"/>
  <outline>
    <contour>
      <point x="214" y="0" type="line"/>
      <point x="271" y="0" type="line"/>
      <point x="244" y="-111" type="line"/>
      <point x="289" y="-111" type="line" smooth="yes"/>
      <point x="324" y="-111"/>
      <point x="345" y="-124"/>
      <point x="345" y="-146" type="curve" smooth="yes"/>
      <point x="345" y="-170"/>
      <point x="326" y="-183"/>
      <point x="291" y="-183" type="curve" smooth="yes"/>
      <point x="265" y="-183"/>
      <point x="237" y="-173"/>
      <point x="214" y="-155" type="curve"/>
      <point x="165" y="-212" type="line"/>
      <point x="197" y="-240"/>
      <point x="241" y="-254"/>
      <point x="300" y="-254" type="curve" smooth="yes"/>
      <point x="375" y="-254"/>
      <point x="432" y="-206"/>
      <point x="432" y="-144" type="curve" smooth="yes"/>
      <point x="432" y="-95"/>
      <point x="393" y="-63"/>
      <point x="330" y="-58" type="curve"/>
      <point x="344" y="0" type="line"/>
      <point x="386" y="0" type="line"/>
      <point x="386" y="556" type="line"/>
      <point x="586" y="556" type="line"/>
      <point x="586" y="700" type="line"/>
      <point x="14" y="700" type="line"/>
      <point x="14" y="556" type="line"/>
      <point x="214" y="556" type="line"/>
    </contour>
  </outline>
</glyph>
<glyph name="tcaron" format="2">
  <advance width="600"/>
  <unicode hex="0165"/>
  <outline>
    <contour>
      <point x="411" y="578" type="line"/>
      <point x="500" y="578" type="line"/>
      <point x="540" y="807" type="line"/>
      <point x="415" y="784" type="line"/>
    </contour>
    <component base="t"/>
  </outline>
</glyph>
<glyph name="tbar" format="2">
  <advance width="600"/>
  <unicode hex="0167"/>
  <guideline x="29" y="295" angle="90" identifier="20JFz57MC8"/>
  <outline>
    <contour>
      <point x="398" y="-10" type="curve" smooth="yes"/>
      <point x="442" y="-10"/>
      <point x="500" y="0"/>
      <point x="540" y="11" type="curve"/>
      <point x="540" y="142" type="line"/>
      <point x="489" y="128"/>
      <point x="459" y="126"/>
      <point x="430" y="126" type="curve" smooth="yes"/>
      <point x="365" y="126"/>
      <point x="342" y="149"/>
      <point x="342" y="214" type="curve" smooth="yes"/>
      <point x="342" y="226" type="line"/>
      <point x="540" y="226" type="line"/>
      <point x="540" y="314" type="line"/>
      <point x="342" y="314" type="line"/>
      <point x="342" y="391" type="line"/>
      <point x="537" y="391" type="line"/>
      <point x="537" y="516" type="line"/>
      <point x="342" y="516" type="line"/>
      <point x="342" y="692" type="line"/>
      <point x="180" y="659" type="line"/>
      <point x="180" y="516" type="line"/>
      <point x="29" y="516" type="line"/>
      <point x="29" y="391" type="line"/>
      <point x="180" y="391" type="line"/>
      <point x="180" y="314" type="line"/>
      <point x="29" y="314" type="line"/>
      <point x="29" y="226" type="line"/>
      <point x="180" y="226" type="line"/>
      <point x="180" y="182" type="line" smooth="yes"/>
      <point x="180" y="55"/>
      <point x="254" y="-10"/>
    </contour>
  </outline>
</glyph>
<glyph name="uogonek" format="2">
  <advance width="600"/>
  <unicode hex="0173"/>
  <outline>
    <contour>
      <point x="226" y="-8" type="curve" smooth="yes"/>
      <point x="288" y="-8"/>
      <point x="340" y="19"/>
      <point x="379" y="70" type="curve"/>
      <point x="379" y="0" type="line"/>
      <point x="457" y="0" type="line"/>
      <point x="396" y="-41"/>
      <point x="369" y="-82"/>
      <point x="369" y="-132" type="curve" smooth="yes"/>
      <point x="369" y="-191"/>
      <point x="412" y="-231"/>
      <point x="477" y="-231" type="curve" smooth="yes"/>
      <point x="513" y="-231"/>
      <point x="548" y="-222"/>
      <point x="570" y="-208" type="curve"/>
      <point x="550" y="-138" type="line"/>
      <point x="540" y="-145"/>
      <point x="523" y="-149"/>
      <point x="505" y="-149" type="curve" smooth="yes"/>
      <point x="475" y="-149"/>
      <point x="456" y="-132"/>
      <point x="456" y="-103" type="curve" smooth="yes"/>
      <point x="456" y="-67"/>
      <point x="483" y="-35"/>
      <point x="541" y="0" type="curve"/>
      <point x="541" y="516" type="line"/>
      <point x="379" y="516" type="line"/>
      <point x="379" y="150" type="line"/>
      <point x="358" y="129"/>
      <point x="333" y="119"/>
      <point x="303" y="119" type="curve" smooth="yes"/>
      <point x="251" y="119"/>
      <point x="217" y="157"/>
      <point x="217" y="215" type="curve" smooth="yes"/>
      <point x="217" y="516" type="line"/>
      <point x="55" y="516" type="line"/>
      <point x="55" y="168" type="line" smooth="yes"/>
      <point x="55" y="65"/>
      <point x="126" y="-8"/>
    </contour>
  </outline>
</glyph>
<glyph name="dotlessj" format="2">
  <advance width="600"/>
  <unicode hex="0237"/>
  <anchor x="389" y="516" name="top"/>
  <outline>
    <contour>
      <point x="216" y="-219" type="curve" smooth="yes"/>
      <point x="387" y="-219"/>
      <point x="472" y="-146"/>
      <point x="472" y="6" type="curve" smooth="yes"/>
      <point x="472" y="516" type="line"/>
      <point x="75" y="516" type="line"/>
      <point x="75" y="391" type="line"/>
      <point x="310" y="391" type="line"/>
      <point x="310" y="27" type="line" smooth="yes"/>
      <point x="310" y="-54"/>
      <point x="285" y="-81"/>
      <point x="206" y="-81" type="curve" smooth="yes"/>
      <point x="174" y="-81"/>
      <point x="139" y="-77"/>
      <point x="75" y="-60" type="curve"/>
      <point x="75" y="-199" type="line"/>
      <point x="118" y="-211"/>
      <point x="175" y="-219"/>
    </contour>
  </outline>
</glyph>
<glyph name="caron" format="2">
  <advance width="600"/>
  <unicode hex="02C7"/>
  <outline>
    <contour>
      <point x="222" y="604" type="line"/>
      <point x="378" y="604" type="line"/>
      <point x="506" y="755" type="line"/>
      <point x="383" y="755" type="line"/>
      <point x="302" y="672" type="line"/>
      <point x="220" y="755" type="line"/>
      <point x="94" y="755" type="line"/>
    </contour>
  </outline>
</glyph>
<glyph name="breve" format="2">
  <advance width="600"/>
  <unicode hex="02D8"/>
  <outline>
    <contour>
      <point x="300" y="590" type="curve" smooth="yes"/>
      <point x="399" y="590"/>
      <point x="467" y="641"/>
      <point x="490" y="733" type="curve"/>
      <point x="398" y="758" type="line"/>
      <point x="381" y="704"/>
      <point x="348" y="677"/>
      <point x="300" y="677" type="curve" smooth="yes"/>
      <point x="251" y="677"/>
      <point x="220" y="703"/>
      <point x="203" y="758" type="curve"/>
      <point x="110" y="733" type="line"/>
      <point x="133" y="641"/>
      <point x="201" y="590"/>
    </contour>
  </outline>
</glyph>
<glyph name="dotaccent" format="2">
  <advance width="600"/>
  <unicode hex="02D9"/>
  <outline>
    <contour>
      <point x="303" y="595" type="curve" smooth="yes"/>
      <point x="353" y="595"/>
      <point x="393" y="635"/>
      <point x="393" y="684" type="curve" smooth="yes"/>
      <point x="393" y="733"/>
      <point x="353" y="773"/>
      <point x="303" y="773" type="curve" smooth="yes"/>
      <point x="253" y="773"/>
      <point x="213" y="733"/>
      <point x="213" y="684" type="curve" smooth="yes"/>
      <point x="213" y="635"/>
      <point x="253" y="595"/>
    </contour>
  </outline>
</glyph>
<glyph name="uni030A" format="2">
  <unicode hex="030A"/>
  <anchor x="300" y="516" name="_top"/>
  <outline>
    <contour>
      <point x="300" y="586" type="curve" smooth="yes"/>
      <point x="370" y="586"/>
      <point x="427" y="642"/>
      <point x="427" y="710" type="curve" smooth="yes"/>
      <point x="427" y="778"/>
      <point x="370" y="834"/>
      <point x="300" y="834" type="curve" smooth="yes"/>
      <point x="230" y="834"/>
      <point x="173" y="778"/>
      <point x="173" y="710" type="curve" smooth="yes"/>
      <point x="173" y="642"/>
      <point x="230" y="586"/>
    </contour>
    <contour>
      <point x="300" y="650" type="curve" smooth="yes"/>
      <point x="267" y="650"/>
      <point x="240" y="677"/>
      <point x="240" y="710" type="curve" smooth="yes"/>
      <point x="240" y="743"/>
      <point x="267" y="770"/>
      <point x="300" y="770" type="curve" smooth="yes"/>
      <point x="333" y="770"/>
      <point x="360" y="743"/>
      <point x="360" y="710" type="curve" smooth="yes"/>
      <point x="360" y="677"/>
      <point x="333" y="650"/>
    </contour>
  </outline>
</glyph>
<glyph name="endash" format="2">
  <advance width="600"/>
  <unicode hex="2013"/>
  <outline>
    <contour>
      <point x="68" y="219" type="line"/>
      <point x="532" y="219" type="line"/>
      <point x="532" y="354" type="line"/>
      <point x="68" y="354" type="line"/>
    </contour>
  </outline>
</glyph>
<glyph name="dagger" format="2">
  <advance width="600"/>
  <unicode hex="2020"/>
  <outline>
    <contour>
      <point x="238" y="0" type="line"/>
      <point x="362" y="0" type="line"/>
      <point x="362" y="407" type="line"/>
      <point x="489" y="407" type="line"/>
      <point x="489" y="516" type="line"/>
      <point x="362" y="516" type="line"/>
      <point x="362" y="700" type="line"/>
      <point x="238" y="700" type="line"/>
      <point x="238" y="516" type="line"/>
      <point x="111" y="516" type="line"/>
      <point x="111" y="407" type="line"/>
      <point x="238" y="407" type="line"/>
    </contour>
  </outline>
</glyph>
<glyph name="uni2080" format="2">
  <advance width="600"/>
  <unicode hex="2080"/>
  <outline>
    <contour>
      <point x="300" y="-5" type="curve" smooth="yes"/>
      <point x="394" y="-5"/>
      <point x="457" y="65"/>
      <point x="457" y="175" type="curve" smooth="yes"/>
      <point x="457" y="285"/>
      <point x="394" y="355"/>
      <point x="300" y="355" type="curve" smooth="yes"/>
      <point x="206" y="355"/>
      <point x="143" y="285"/>
      <point x="143" y="175" type="curve" smooth="yes"/>
      <point x="143" y="65"/>
      <point x="206" y="-5"/>
    </contour>
    <contour>
      <point x="300" y="77" type="curve" smooth="yes"/>
      <point x="260" y="77"/>
      <point x="234" y="112"/>
      <point x="234" y="175" type="curve" smooth="yes"/>
      <point x="234" y="238"/>
      <point x="260" y="273"/>
      <point x="300" y="273" type="curve" smooth="yes"/>
      <point x="340" y="273"/>
      <point x="366" y="238"/>
      <point x="366" y="175" type="curve" smooth="yes"/>
      <point x="366" y="112"/>
      <point x="340" y="77"/>
    </contour>
  </outline>
</glyph>
<glyph name="uni2082" format="2">
  <advance width="600"/>
  <unicode hex="2082"/>
  <outline>
    <contour>
      <point x="150" y="0" type="line"/>
      <point x="411" y="0" type="line"/>
      <point x="411" y="79" type="line"/>
      <point x="273" y="79" type="line"/>
      <point x="361" y="162" type="line" smooth="yes"/>
      <point x="392" y="191"/>
      <point x="407" y="219"/>
      <point x="407" y="249" type="curve" smooth="yes"/>
      <point x="407" y="310"/>
      <point x="357" y="355"/>
      <point x="276" y="355" type="curve" smooth="yes"/>
      <point x="225" y="355"/>
      <point x="176" y="334"/>
      <point x="134" y="293" type="curve"/>
      <point x="186" y="231" type="line"/>
      <point x="224" y="268"/>
      <point x="249" y="274"/>
      <point x="273" y="274" type="curve" smooth="yes"/>
      <point x="298" y="274"/>
      <point x="316" y="259"/>
      <point x="316" y="241" type="curve" smooth="yes"/>
      <point x="316" y="231"/>
      <point x="310" y="219"/>
      <point x="297" y="207" type="curve" smooth="yes"/>
      <point x="150" y="68" type="line"/>
    </contour>
  </outline>
</glyph>
<glyph name="uni2083" format="2">
  <advance width="600"/>
  <unicode hex="2083"/>
  <outline>
    <contour>
      <point x="285" y="-5" type="curve" smooth="yes"/>
      <point x="371" y="-5"/>
      <point x="432" y="39"/>
      <point x="432" y="100" type="curve" smooth="yes"/>
      <point x="432" y="137"/>
      <point x="405" y="165"/>
      <point x="362" y="176" type="curve"/>
      <point x="400" y="188"/>
      <point x="425" y="217"/>
      <point x="425" y="253" type="curve" smooth="yes"/>
      <point x="425" y="313"/>
      <point x="369" y="355"/>
      <point x="288" y="355" type="curve" smooth="yes"/>
      <point x="236" y="355"/>
      <point x="180" y="333"/>
      <point x="146" y="298" type="curve"/>
      <point x="205" y="237" type="line"/>
      <point x="235" y="264"/>
      <point x="256" y="273"/>
      <point x="284" y="273" type="curve" smooth="yes"/>
      <point x="312" y="273"/>
      <point x="330" y="259"/>
      <point x="330" y="239" type="curve" smooth="yes"/>
      <point x="330" y="219"/>
      <point x="315" y="208"/>
      <point x="287" y="208" type="curve" smooth="yes"/>
      <point x="256" y="208" type="line"/>
      <point x="256" y="134" type="line"/>
      <point x="298" y="134" type="line" smooth="yes"/>
      <point x="323" y="134"/>
      <point x="337" y="124"/>
      <point x="337" y="107" type="curve" smooth="yes"/>
      <point x="337" y="88"/>
      <point x="316" y="76"/>
      <point x="284" y="76" type="curve" smooth="yes"/>
      <point x="251" y="76"/>
      <point x="228" y="86"/>
      <point x="199" y="111" type="curve"/>
      <point x="143" y="47" type="line"/>
      <point x="178" y="14"/>
      <point x="229" y="-5"/>
    </contour>
  </outline>
</glyph>
<glyph name="uni2085" format="2">
  <advance width="600"/>
  <unicode hex="2085"/>
  <outline>
    <contour>
      <point x="292" y="-5" type="curve" smooth="yes"/>
      <point x="383" y="-5"/>
      <point x="444" y="44"/>
      <point x="444" y="115" type="curve" smooth="yes"/>
      <point x="444" y="180"/>
      <point x="396" y="223"/>
      <point x="320" y="223" type="curve" smooth="yes"/>
      <point x="299" y="223"/>
      <point x="279" y="218"/>
      <point x="258" y="208" type="curve"/>
      <point x="261" y="273" type="line"/>
      <point x="425" y="273" type="line"/>
      <point x="425" y="350" type="line"/>
      <point x="185" y="350" type="line"/>
      <point x="176" y="158" type="line"/>
      <point x="242" y="138" type="line"/>
      <point x="260" y="149"/>
      <point x="275" y="154"/>
      <point x="295" y="154" type="curve" smooth="yes"/>
      <point x="325" y="154"/>
      <point x="346" y="137"/>
      <point x="346" y="114" type="curve" smooth="yes"/>
      <point x="346" y="90"/>
      <point x="324" y="73"/>
      <point x="292" y="73" type="curve" smooth="yes"/>
      <point x="267" y="73"/>
      <point x="243" y="80"/>
      <point x="209" y="101" type="curve"/>
      <point x="163" y="31" type="line"/>
      <point x="204" y="6"/>
      <point x="244" y="-5"/>
    </contour>
  </outline>
</glyph>
<glyph name="uni2215" format="2">
  <advance width="600"/>
  <unicode hex="2215"/>
  <outline>
    <contour>
      <point x="20" y="0" type="line"/>
      <point x="134" y="0" type="line"/>
      <point x="532" y="700" type="line"/>
      <point x="417" y="700" type="line"/>
    </contour>
  </outline>
</glyph>
<glyph name="notequal" format="2">
  <advance width="600"/>
  <unicode hex="2260"/>
  <outline>
    <contour>
      <point x="80" y="81" type="line"/>
      <point x="200" y="81" type="line"/>
      <point x="265" y="191" type="line"/>
      <point x="525" y="191" type="line"/>
      <point x="525" y="311" type="line"/>
      <point x="336" y="311" type="line"/>
      <point x="385" y="393" type="line"/>
      <point x="525" y="393" type="line"/>
      <point x="525" y="513" type="line"/>
      <point x="456" y="513" type="line"/>
      <point x="520" y="621" type="line"/>
      <point x="402" y="621" type="line"/>
      <point x="338" y="513" type="line"/>
      <point x="75" y="513" type="line"/>
      <point x="75" y="393" type="line"/>
      <point x="266" y="393" type="line"/>
      <point x="217" y="311" type="line"/>
      <point x="75" y="311" type="line"/>
      <point x="75" y="191" type="line"/>
      <point x="146" y="191" type="line"/>
    </contour>
  </outline>
</glyph>
<glyph name="fi" format="2">
  <advance width="600"/>
  <unicode hex="FB01"/>
  <outline>
    <contour>
      <point x="94" y="0" type="line"/>
      <point x="246" y="0" type="line"/>
      <point x="246" y="391" type="line"/>
      <point x="356" y="391" type="line"/>
      <point x="356" y="516" type="line"/>
      <point x="246" y="516" type="line"/>
      <point x="246" y="581" type="line" smooth="yes"/>
      <point x="246" y="619"/>
      <point x="265" y="637"/>
      <point x="304" y="637" type="curve" smooth="yes"/>
      <point x="319" y="637"/>
      <point x="332" y="635"/>
      <point x="356" y="631" type="curve"/>
      <point x="356" y="760" type="line"/>
      <point x="337" y="765"/>
      <point x="305" y="770"/>
      <point x="280" y="770" type="curve" smooth="yes"/>
      <point x="159" y="770"/>
      <point x="94" y="703"/>
      <point x="94" y="580" type="curve" smooth="yes"/>
      <point x="94" y="516" type="line"/>
      <point x="7" y="516" type="line"/>
      <point x="7" y="391" type="line"/>
      <point x="94" y="391" type="line"/>
    </contour>
    <contour>
      <point x="479" y="601" type="curve" smooth="yes"/>
      <point x="528" y="601"/>
      <point x="566" y="639"/>
      <point x="566" y="686" type="curve" smooth="yes"/>
      <point x="566" y="733"/>
      <point x="526" y="772"/>
      <point x="479" y="772" type="curve" smooth="yes"/>
      <point x="432" y="772"/>
      <point x="393" y="733"/>
      <point x="393" y="686" type="curve" smooth="yes"/>
      <point x="393" y="639"/>
      <point x="431" y="601"/>
    </contour>
    <contour>
      <point x="403" y="0" type="line"/>
      <point x="555" y="0" type="line"/>
      <point x="555" y="516" type="line"/>
      <point x="403" y="516" type="line"/>
    </contour>
  </outline>
</glyph>
<glyph name="fl" format="2">
  <advance width="600"/>
  <unicode hex="FB02"/>
  <outline>
    <contour>
      <point x="94" y="0" type="line"/>
      <point x="246" y="0" type="line"/>
      <point x="246" y="391" type="line"/>
      <point x="356" y="391" type="line"/>
      <point x="356" y="516" type="line"/>
      <point x="246" y="516" type="line"/>
      <point x="246" y="581" type="line" smooth="yes"/>
      <point x="246" y="619"/>
      <point x="265" y="637"/>
      <point x="304" y="637" type="curve" smooth="yes"/>
      <point x="319" y="637"/>
      <point x="332" y="635"/>
      <point x="356" y="631" type="curve"/>
      <point x="356" y="760" type="line"/>
      <point x="337" y="765"/>
      <point x="305" y="770"/>
      <point x="280" y="770" type="curve" smooth="yes"/>
      <point x="159" y="770"/>
      <point x="94" y="703"/>
      <point x="94" y="580" type="curve" smooth="yes"/>
      <point x="94" y="516" type="line"/>
      <point x="7" y="516" type="line"/>
      <point x="7" y="391" type="line"/>
      <point x="94" y="391" type="line"/>
    </contour>
    <contour>
      <point x="403" y="0" type="line"/>
      <point x="555" y="0" type="line"/>
      <point x="555" y="737" type="line"/>
      <point x="403" y="714" type="line"/>
    </contour>
  </outline>
</glyph>
<glyph name="a.school" format="2">
  <advance width="600"/>
  <anchor x="298" y="516" name="top"/>
  <anchor x="541" y="0" name="bottom"/>
  <outline>
    <contour>
      <point x="260" y="-8" type="curve" smooth="yes"/>
      <point x="309" y="-8"/>
      <point x="352" y="13"/>
      <point x="385" y="50" type="curve"/>
      <point x="385" y="0" type="line"/>
      <point x="541" y="0" type="line"/>
      <point x="541" y="516" type="line"/>
      <point x="379" y="516" type="line"/>
      <point x="379" y="473" type="line"/>
      <point x="347" y="505"/>
      <point x="306" y="524"/>
      <point x="260" y="524" type="curve" smooth="yes"/>
      <point x="134" y="524"/>
      <point x="31" y="409"/>
      <point x="31" y="258" type="curve" smooth="yes"/>
      <point x="31" y="107"/>
      <point x="134" y="-8"/>
    </contour>
    <contour>
      <point x="298" y="120" type="curve" smooth="yes"/>
      <point x="231" y="120"/>
      <point x="190" y="175"/>
      <point x="190" y="258" type="curve" smooth="yes"/>
      <point x="190" y="341"/>
      <point x="231" y="396"/>
      <point x="298" y="396" type="curve" smooth="yes"/>
      <point x="329" y="396"/>
      <point x="357" y="384"/>
      <point x="379" y="364" type="curve"/>
      <point x="379" y="152" type="line"/>
      <point x="357" y="132"/>
      <point x="329" y="120"/>
    </contour>
  </outline>
</glyph>
<glyph name="commaaccent" format="2">
  <advance width="600"/>
  <outline>
    <contour>
      <point x="171" y="-305" type="line"/>
      <point x="283" y="-305" type="line"/>
      <point x="378" y="-90" type="line"/>
      <point x="234" y="-90" type="line"/>
    </contour>
  </outline>
</glyph>
<glyph name="cordinal" format="2">
  <advance width="600"/>
  <outline>
    <contour>
      <point x="344" y="295" type="curve" smooth="yes"/>
      <point x="410" y="295"/>
      <point x="472" y="323"/>
      <point x="513" y="370" type="curve"/>
      <point x="436" y="450" type="line"/>
      <point x="408" y="418"/>
      <point x="381" y="405"/>
      <point x="347" y="405" type="curve" smooth="yes"/>
      <point x="296" y="405"/>
      <point x="258" y="447"/>
      <point x="258" y="503" type="curve" smooth="yes"/>
      <point x="258" y="559"/>
      <point x="296" y="601"/>
      <point x="347" y="601" type="curve" smooth="yes"/>
      <point x="381" y="601"/>
      <point x="408" y="588"/>
      <point x="436" y="556" type="curve"/>
      <point x="513" y="636" type="line"/>
      <point x="472" y="683"/>
      <point x="410" y="711"/>
      <point x="344" y="711" type="curve" smooth="yes"/>
      <point x="224" y="711"/>
      <point x="132" y="620"/>
      <point x="132" y="503" type="curve" smooth="yes"/>
      <point x="132" y="386"/>
      <point x="224" y="295"/>
    </contour>
  </outline>
</glyph>
<glyph name="g.alt" format="2">
  <advance width="600"/>
  <anchor x="276" y="516" name="top"/>
  <outline>
    <contour>
      <point x="267" y="-219" type="curve" smooth="yes"/>
      <point x="463" y="-219"/>
      <point x="585" y="-150"/>
      <point x="585" y="-40" type="curve" smooth="yes"/>
      <point x="585" y="36"/>
      <point x="519" y="81"/>
      <point x="409" y="85" type="curve" smooth="yes"/>
      <point x="232" y="91" type="line" smooth="yes"/>
      <point x="197" y="92"/>
      <point x="181" y="101"/>
      <point x="181" y="120" type="curve" smooth="yes"/>
      <point x="181" y="132"/>
      <point x="189" y="142"/>
      <point x="202" y="148" type="curve"/>
      <point x="225" y="143"/>
      <point x="250" y="140"/>
      <point x="276" y="140" type="curve" smooth="yes"/>
      <point x="415" y="140"/>
      <point x="522" y="225"/>
      <point x="522" y="332" type="curve" smooth="yes"/>
      <point x="522" y="367"/>
      <point x="510" y="400"/>
      <point x="490" y="428" type="curve"/>
      <point x="506" y="437"/>
      <point x="525" y="441"/>
      <point x="546" y="441" type="curve" smooth="yes"/>
      <point x="561" y="441"/>
      <point x="580" y="438"/>
      <point x="597" y="432" type="curve"/>
      <point x="597" y="558" type="line"/>
      <point x="585" y="562"/>
      <point x="578" y="563"/>
      <point x="566" y="563" type="curve" smooth="yes"/>
      <point x="516" y="563"/>
      <point x="480" y="533"/>
      <point x="452" y="467" type="curve"/>
      <point x="408" y="502"/>
      <point x="346" y="524"/>
      <point x="276" y="524" type="curve" smooth="yes"/>
      <point x="137" y="524"/>
      <point x="30" y="439"/>
      <point x="30" y="332" type="curve" smooth="yes"/>
      <point x="30" y="257"/>
      <point x="82" y="193"/>
      <point x="161" y="161" type="curve"/>
      <point x="93" y="148"/>
      <point x="51" y="110"/>
      <point x="51" y="59" type="curve" smooth="yes"/>
      <point x="51" y="20"/>
      <point x="73" y="-9"/>
      <point x="115" y="-27" type="curve"/>
      <point x="42" y="-38"/>
      <point x="-3" y="-67"/>
      <point x="-3" y="-106" type="curve" smooth="yes"/>
      <point x="-3" y="-181"/>
      <point x="92" y="-219"/>
    </contour>
    <contour>
      <point x="276" y="251" type="curve" smooth="yes"/>
      <point x="222" y="251"/>
      <point x="182" y="286"/>
      <point x="182" y="332" type="curve" smooth="yes"/>
      <point x="182" y="378"/>
      <point x="222" y="413"/>
      <point x="276" y="413" type="curve" smooth="yes"/>
      <point x="330" y="413"/>
      <point x="370" y="378"/>
      <point x="370" y="332" type="curve" smooth="yes"/>
      <point x="370" y="286"/>
      <point x="330" y="251"/>
    </contour>
    <contour>
      <point x="267" y="-121" type="curve" smooth="yes"/>
      <point x="181" y="-121"/>
      <point x="142" y="-108"/>
      <point x="142" y="-74" type="curve" smooth="yes"/>
      <point x="142" y="-60"/>
      <point x="150" y="-49"/>
      <point x="165" y="-41" type="curve"/>
      <point x="185" y="-45"/>
      <point x="208" y="-47"/>
      <point x="233" y="-48" type="curve" smooth="yes"/>
      <point x="383" y="-52" type="line" smooth="yes"/>
      <point x="410" y="-53"/>
      <point x="423" y="-59"/>
      <point x="423" y="-74" type="curve" smooth="yes"/>
      <point x="423" y="-103"/>
      <point x="364" y="-121"/>
    </contour>
  </outline>
</glyph>
<glyph name="gravecomb" format="2">
  <anchor x="300" y="516" name="_top"/>
  <outline>
    <contour>
      <point x="248" y="601" type="line"/>
      <point x="396" y="601" type="line"/>
      <point x="258" y="747" type="line"/>
      <point x="56" y="747" type="line"/>
    </contour>
  </outline>
</glyph>
<glyph name="tildecomb" format="2">
  <anchor x="300" y="516" name="_top"/>
  <outline>
    <contour>
      <point x="182" y="590" type="line"/>
      <point x="196" y="641"/>
      <point x="209" y="657"/>
      <point x="231" y="657" type="curve"/>
      <point x="267" y="657"/>
      <point x="325" y="597"/>
      <point x="384" y="597" type="curve" smooth="yes"/>
      <point x="445" y="597"/>
      <point x="485" y="645"/>
      <point x="508" y="739" type="curve"/>
      <point x="418" y="760" type="line"/>
      <point x="404" y="709"/>
      <point x="394" y="693"/>
      <point x="374" y="693" type="curve"/>
      <point x="338" y="693"/>
      <point x="280" y="753"/>
      <point x="221" y="753" type="curve" smooth="yes"/>
      <point x="157" y="753"/>
      <point x="115" y="705"/>
      <point x="92" y="611" type="curve"/>
    </contour>
  </outline>
</glyph>
